<?xml version="1.0" encoding="UTF-8"?>
<svg version="1.1" viewBox="0 0 24 24" xmlns="http://www.w3.org/2000/svg" xmlns:cc="http://creativecommons.org/ns#" xmlns:dc="http://purl.org/dc/elements/1.1/" xmlns:rdf="http://www.w3.org/1999/02/22-rdf-syntax-ns#">
 <metadata>
  <rdf:RDF>
   <cc:Work rdf:about="">
    <dc:format>image/svg+xml</dc:format>
    <dc:type rdf:resource="http://purl.org/dc/dcmitype/StillImage"/>
    <dc:title/>
   </cc:Work>
  </rdf:RDF>
 </metadata>
 <defs>
  <style id="current-color-scheme" type="text/css">.ColorScheme-Text {
        color:#eff0f1;
      }</style>
 </defs>
 <g transform="translate(1,1)" fill="#eae6d2" stroke="#a0968c" stroke-width=".4">
  <path class="ColorScheme-Text" d="m14.551 3c-1.2139 0-2.219 0.85593-2.4492 2h-9.0508v1h9.0508c0.2302 1.1441 1.2354 2 2.4492 2s2.219-0.85593 2.4492-2h2.0508v-1h-2.0508c-0.2302-1.1441-1.2354-2-2.4492-2zm0 1c0.831 0 1.5 0.669 1.5 1.5s-0.669 1.5-1.5 1.5-1.5-0.669-1.5-1.5 0.669-1.5 1.5-1.5zm-3 5c-1.2139 0-2.219 0.85593-2.4492 2h-6.0508v1h6.0508c0.2302 1.1441 1.2354 2 2.4492 2s2.219-0.85593 2.4492-2h5.0508v-1h-5.0508c-0.2302-1.1441-1.2354-2-2.4492-2zm-6 5c-1.385 0-2.5 1.115-2.5 2.5s1.115 2.5 2.5 2.5c1.2139 0 2.219-0.85593 2.4492-2h11.051v-1h-11.051c-0.2302-1.1441-1.2354-2-2.4492-2zm0 1c0.831 0 1.5 0.669 1.5 1.5s-0.669 1.5-1.5 1.5-1.5-0.669-1.5-1.5 0.669-1.5 1.5-1.5z" color="#eff0f1" fill="#eae6d2" stroke="#a0968c" stroke-width=".4"/>
 </g>
</svg>
