<?xml version="1.0" encoding="UTF-8"?>
<svg version="1.1" viewBox="0 0 24 24" xmlns="http://www.w3.org/2000/svg" xmlns:cc="http://creativecommons.org/ns#" xmlns:dc="http://purl.org/dc/elements/1.1/" xmlns:rdf="http://www.w3.org/1999/02/22-rdf-syntax-ns#">
 <metadata>
  <rdf:RDF>
   <cc:Work rdf:about="">
    <dc:format>image/svg+xml</dc:format>
    <dc:type rdf:resource="http://purl.org/dc/dcmitype/StillImage"/>
    <dc:title/>
   </cc:Work>
  </rdf:RDF>
 </metadata>
 <defs>
  <style id="current-color-scheme" type="text/css">.ColorScheme-Text {
        color:#eff0f1;
      }
      .ColorScheme-Highlight {
        color:#3daee9;
      }</style>
 </defs>
 <g transform="translate(1,1)">
  <path class="ColorScheme-Text" d="m9 2v4h4v-4zm1 1h2v2h-2zm-7 7v1h1v-1zm3 0v1h1v-1zm3 0v1h1v-1zm3 0v1h1v-1zm3 0v1h1v-1zm3 0v1h1v-1zm-15 5v4h4v-4zm12 0v4h4v-4zm-11 1h2v2h-2zm12 0h2v2h-2z" color="#eff0f1" fill="#eae6d2" stroke="#a0968c" stroke-width=".4"/>
  <path class="ColorScheme-Highlight" d="m9 7 2 3 2-3zm-4 4-2 3h4zm12 0-2 3h4z" color="#3daee9" fill="#009600" stroke="#006400" stroke-width=".6"/>
 </g>
</svg>
