<?xml version="1.0" encoding="UTF-8"?>
<svg version="1.1" viewBox="0 0 24 24" xmlns="http://www.w3.org/2000/svg" xmlns:cc="http://creativecommons.org/ns#" xmlns:dc="http://purl.org/dc/elements/1.1/" xmlns:rdf="http://www.w3.org/1999/02/22-rdf-syntax-ns#">
 <metadata>
  <rdf:RDF>
   <cc:Work rdf:about="">
    <dc:format>image/svg+xml</dc:format>
    <dc:type rdf:resource="http://purl.org/dc/dcmitype/StillImage"/>
    <dc:title/>
   </cc:Work>
  </rdf:RDF>
 </metadata>
 <defs>
  <style id="current-color-scheme" type="text/css">.ColorScheme-Text {
        color:#eff0f1;
      }</style>
 </defs>
 <g transform="translate(1,1)" fill="#eae6d2" stroke="#a0968c" stroke-width=".4">
  <path class="ColorScheme-Text" d="m7 3v14.461c-0.32876 0.06879-0.62711 0.14107-1 0.20508l0.27734 1.334c0.24933-0.042789 0.48469-0.096456 0.72266-0.14844v0.14844h1v-0.40234c4.8149-1.4006 7-4.7442 7-7.5977h-1.4766c0 0.9235-0.46648 2.706-1.2656 3.3926-0.81579-0.7731-1.7999-1.9682-2.0371-3.3711l-1.1895-0.02148c0 1.8985 1.3411 3.4706 2.3496 4.4355-0.86221 0.87582-1.8774 1.4033-3.3809 1.8047v-14.24zm5.1367 0c-1.1727 0.02548-2.074 0.21755-2.7285 0.49805l0.36914 1.2617c0.31364-0.10206 1.4999-0.45898 2.1953-0.45898h0.0957c0.96819 0.03822 1.0371 0.36872 1.0371 1.1465v0.30664l-0.50586 0.076172c-2.3455 0.31876-3.5996 0.58648-3.5996 2.2695 0 1.173 0.91358 1.9004 2.2363 1.9004 0.91365 0 1.5133-0.35729 2.127-0.8418l0.19141 0.71484h1.4453v-4.7188c0-1.4408-1.0628-2.1543-2.6992-2.1543zm0.96875 3.748v1.5684c-0.50454 0.31876-0.88646 0.54883-1.541 0.54883-0.58637 0-0.87305-0.34362-0.87305-0.82812 0-0.91803 0.85818-1.0726 1.9082-1.2129z" color="#eff0f1" fill="#eae6d2" stroke="#a0968c" stroke-width=".4"/>
 </g>
</svg>
