<?xml version="1.0" encoding="UTF-8"?>
<svg version="1.1" viewBox="0 0 24 24" xmlns="http://www.w3.org/2000/svg" xmlns:cc="http://creativecommons.org/ns#" xmlns:dc="http://purl.org/dc/elements/1.1/" xmlns:rdf="http://www.w3.org/1999/02/22-rdf-syntax-ns#">
 <metadata>
  <rdf:RDF>
   <cc:Work rdf:about="">
    <dc:format>image/svg+xml</dc:format>
    <dc:type rdf:resource="http://purl.org/dc/dcmitype/StillImage"/>
    <dc:title/>
   </cc:Work>
  </rdf:RDF>
 </metadata>
 <defs>
  <style id="current-color-scheme" type="text/css">.ColorScheme-Text {
        color:#eff0f1;
      }</style>
 </defs>
 <g transform="translate(1,1)" fill="#eae6d2" stroke="#a0968c" stroke-width=".4">
  <path class="ColorScheme-Text" transform="translate(-1,-1)" d="m12 4c-1.1046 0-2 0.89543-2 2 0 0.93198 0.6373 1.7155 1.5 1.9375v2.0625h-2.5v1h2.5v7.9688c-2.539-0.16277-4.7484-1.5122-6.0938-3.5l0.1875-0.09375 0.90625-0.5-0.5-0.875c1.9e-5 1.7e-5 -3 1.625-3 1.625l0.5 0.875 1.0312-0.5625c1.6042 2.4356 4.3356 4.0625 7.4688 4.0625s5.8639-1.6269 7.4688-4.0625l1.0312 0.5625 0.5-0.875c1.4e-5 -6.33e-4 -3-1.625-3-1.625l-0.5 0.875 0.90625 0.5 0.1875 0.09375c-1.3454 1.9878-3.5547 3.3372-6.0938 3.5v-7.9688h2.5v-1h-2.5v-2.0625c0.8627-0.22196 1.5-1.0055 1.5-1.9375 0-1.1046-0.89543-2-2-2m0 1c0.55228 0 1 0.44772 1 1s-0.44772 1-1 1-1-0.44772-1-1 0.44772-1 1-1z" color="#eff0f1" fill="#eae6d2" stroke="#a0968c" stroke-width=".4"/>
 </g>
</svg>
