<?xml version="1.0" encoding="UTF-8"?>
<svg version="1.1" viewBox="0 0 16 16" xmlns="http://www.w3.org/2000/svg" xmlns:cc="http://creativecommons.org/ns#" xmlns:dc="http://purl.org/dc/elements/1.1/" xmlns:rdf="http://www.w3.org/1999/02/22-rdf-syntax-ns#">
 <metadata>
  <rdf:RDF>
   <cc:Work rdf:about="">
    <dc:format>image/svg+xml</dc:format>
    <dc:type rdf:resource="http://purl.org/dc/dcmitype/StillImage"/>
    <dc:title/>
   </cc:Work>
  </rdf:RDF>
 </metadata>
 <defs>
  <style id="current-color-scheme" type="text/css">.ColorScheme-Text {
        color:#eff0f1;
      }</style>
 </defs>
 <path d="m8 2a1 1 0 0 0-1 1 1 1 0 0 0 1 1 1 1 0 0 0 1-1 1 1 0 0 0-1-1z" fill="#009600" stroke="#006400" stroke-width=".6"/>
 <path d="m4 5c-0.55402 0-1 0.44598-1 1v5c0 0.55402 0.44598 1 1 1h3v1h-2v1h6v-1h-2v-1h3c0.55402 0 1-0.44598 1-1v-5c0-0.55402-0.44598-1-1-1z" fill="#eae6d2" stroke="#a0968c" stroke-width=".4"/>
 <path d="m5 6h6c0.554 0 1 0.446 1 1s-0.446 1-1 1h-6c-0.554 0-1-0.446-1-1s0.446-1 1-1z" fill="#009600" stroke="#006400" stroke-width=".6"/>
</svg>
