<?xml version="1.0" encoding="UTF-8"?>
<svg version="1.1" viewBox="0 0 32 32" xmlns="http://www.w3.org/2000/svg" xmlns:cc="http://creativecommons.org/ns#" xmlns:dc="http://purl.org/dc/elements/1.1/" xmlns:rdf="http://www.w3.org/1999/02/22-rdf-syntax-ns#">
 <metadata>
  <rdf:RDF>
   <cc:Work rdf:about="">
    <dc:format>image/svg+xml</dc:format>
    <dc:type rdf:resource="http://purl.org/dc/dcmitype/StillImage"/>
    <dc:title/>
   </cc:Work>
  </rdf:RDF>
 </metadata>
 <defs>
  <style id="current-color-scheme" type="text/css">.ColorScheme-Text {
        color:#eff0f1;
      }</style>
 </defs>
 <path d="m23.779 3.9805-19.799 19.799 4.2422 4.2441 19.799-19.799z" fill="#eae6d8" stroke="#a0968c" stroke-width=".4"/>
 <g fill="#009600" stroke="#006400" stroke-width=".6">
  <path d="M 6.25,4 5.453125,5.453125 4,6.25 5.453125,7.046875 6.25,8.5 7.046875,7.046875 8.5,6.25 7.046875,5.453125 Z"/>
  <path d="m13.75 4-0.79688 1.4531-1.4531 0.79688 1.4531 0.79688 0.79688 1.4531 0.79688-1.4531 1.4531-0.79688-1.4531-0.79688z"/>
  <path d="m23.777 5.3945 2.8281 2.8281-5.6582 5.6582-2.8281-2.8281z"/>
  <path d="m9.25 10-0.79688 1.4531-1.4531 0.79688 1.4531 0.79688 0.79688 1.4531 0.79688-1.4531 1.4531-0.79688-1.4531-0.79688z"/>
 </g>
</svg>
