<?xml version="1.0" encoding="UTF-8"?>
<svg version="1.1" viewBox="0 0 24 24" xmlns="http://www.w3.org/2000/svg" xmlns:cc="http://creativecommons.org/ns#" xmlns:dc="http://purl.org/dc/elements/1.1/" xmlns:rdf="http://www.w3.org/1999/02/22-rdf-syntax-ns#">
 <metadata>
  <rdf:RDF>
   <cc:Work rdf:about="">
    <dc:format>image/svg+xml</dc:format>
    <dc:type rdf:resource="http://purl.org/dc/dcmitype/StillImage"/>
    <dc:title/>
   </cc:Work>
  </rdf:RDF>
 </metadata>
 <defs>
  <style id="current-color-scheme" type="text/css">.ColorScheme-Text {
        color:#eff0f1;
      }</style>
 </defs>
 <g transform="translate(1,1)">
  <g fill="#eae6d2" stroke="#a0968c" stroke-width=".4">
   <path d="m5 5v1h1v-1z" color="#eff0f1"/>
   <path d="m7 5v1h1v-1z" color="#eff0f1"/>
   <path d="m9 5v1h1v-1z" color="#eff0f1"/>
   <path d="m12 5v1h1v-1z" color="#eff0f1"/>
   <path d="m14 5v1h1v-1z" color="#eff0f1"/>
   <path d="m16 5v1h1v-1z" color="#eff0f1"/>
   <path d="m5 7v1h1v-1z" color="#eff0f1"/>
   <path d="m16 7v1h1v-1z" color="#eff0f1"/>
  </g>
  <path d="m1 9v4l3-2z" color="#eff0f1" fill="#009600" stroke="#006400" stroke-width=".6"/>
  <path d="m5 9v1h1v-1z" color="#eff0f1" fill="#eae6d2" stroke="#a0968c" stroke-width=".4"/>
  <path d="m16 9v1h1v-1z" color="#eff0f1" fill="#eae6d2" stroke="#a0968c" stroke-width=".4"/>
  <path d="m21 9-3 2 3 2z" color="#eff0f1" fill="#009600" stroke="#006400" stroke-width=".6"/>
  <path d="m5 11v7h12v-7z" color="#eff0f1" fill="#eae6d2" stroke="#a0968c" stroke-width=".4"/>
  <path d="m6 12h10v5h-10z" color="#eff0f1" fill="#009600" stroke="#006400" stroke-width=".6"/>
 </g>
</svg>
