<?xml version="1.0" encoding="UTF-8"?>
<svg version="1.1" viewBox="0 0 24 24" xmlns="http://www.w3.org/2000/svg" xmlns:cc="http://creativecommons.org/ns#" xmlns:dc="http://purl.org/dc/elements/1.1/" xmlns:rdf="http://www.w3.org/1999/02/22-rdf-syntax-ns#">
 <metadata>
  <rdf:RDF>
   <cc:Work rdf:about="">
    <dc:format>image/svg+xml</dc:format>
    <dc:type rdf:resource="http://purl.org/dc/dcmitype/StillImage"/>
    <dc:title/>
   </cc:Work>
  </rdf:RDF>
 </metadata>
 <defs>
  <style id="current-color-scheme" type="text/css">.ColorScheme-Text {
        color:#eff0f1;
      }</style>
 </defs>
 <g transform="translate(1,1)">
  <path d="m10 3c-0.97291 3.405-3.3544 6.3323-4.4043 8.6758-0.3674 0.6968-0.5957 1.4788-0.5957 2.3242 0 2.77 2.23 5 5 5s5-2.23 5-5c0-0.8454-0.2283-1.6274-0.5957-2.3242-1.0498-2.3435-3.4314-5.2708-4.4043-8.6758z" color="#eff0f1" fill="#eae6d2" stroke="#a0968c" stroke-width=".4"/>
  <path d="m16 3-0.57422 1.6133-1.5469-0.73438 0.73438 1.5469-1.6133 0.57422 1.6133 0.57422-0.73438 1.5469 1.5469-0.73438 0.57422 1.6133 0.57422-1.6133 1.5469 0.73438-0.73438-1.5469 1.6133-0.57422-1.6133-0.57422 0.73438-1.5469-1.5469 0.73438z" color="#eff0f1" fill="#1ee6ef"/>
  <path d="m12.283 10.717c1.0377 0.7212 1.7168 1.9183 1.7168 3.2832 0 2.216-1.784 4-4 4-1.365 0-2.562-0.679-3.2832-1.7168 0.64704 0.4497 1.4321 0.7168 2.2832 0.7168 2.216 0 4-1.784 4-4 0-0.8511-0.26709-1.6362-0.7168-2.2832z" color="#eff0f1" fill="#989b92" stroke="#a0968c" stroke-width=".4"/>
 </g>
</svg>
