<?xml version="1.0" encoding="UTF-8"?>
<svg version="1.1" viewBox="0 0 24 24" xmlns="http://www.w3.org/2000/svg" xmlns:cc="http://creativecommons.org/ns#" xmlns:dc="http://purl.org/dc/elements/1.1/" xmlns:rdf="http://www.w3.org/1999/02/22-rdf-syntax-ns#">
 <metadata>
  <rdf:RDF>
   <cc:Work rdf:about="">
    <dc:format>image/svg+xml</dc:format>
    <dc:type rdf:resource="http://purl.org/dc/dcmitype/StillImage"/>
    <dc:title/>
   </cc:Work>
  </rdf:RDF>
 </metadata>
 <defs>
  <style id="current-color-scheme" type="text/css">.ColorScheme-Text {
        color:#eff0f1;
      }</style>
 </defs>
 <g transform="translate(1,1)" fill="#eae6d2" stroke="#a0968c" stroke-width=".4">
  <path class="ColorScheme-Text" d="m10 3v2.0898a6 6 0 0 0-4.9141 4.9102h-2.0859v2h2.0898a6 6 0 0 0 5.9102 5 6 6 0 0 0 5.9141-5h2.0859v-2h-2.0898a6 6 0 0 0-4.9102-4.9141v-2.0859zm1 3a5 5 0 0 1 5 5 5 5 0 0 1-5 5 5 5 0 0 1-5-5 5 5 0 0 1 5-5z" color="#eff0f1" fill="#eae6d2" stroke="#a0968c" stroke-width=".4"/>
 </g>
</svg>
