<?xml version="1.0" encoding="UTF-8"?>
<svg version="1.1" viewBox="0 0 24 24" xmlns="http://www.w3.org/2000/svg" xmlns:cc="http://creativecommons.org/ns#" xmlns:dc="http://purl.org/dc/elements/1.1/" xmlns:rdf="http://www.w3.org/1999/02/22-rdf-syntax-ns#">
 <metadata>
  <rdf:RDF>
   <cc:Work rdf:about="">
    <dc:format>image/svg+xml</dc:format>
    <dc:type rdf:resource="http://purl.org/dc/dcmitype/StillImage"/>
    <dc:title/>
   </cc:Work>
  </rdf:RDF>
 </metadata>
 <defs>
  <style id="current-color-scheme" type="text/css">.ColorScheme-Text {
        color:#eff0f1;
      }</style>
 </defs>
 <path d="m7.877 4c-1.6644 0.85617-3.0208 2.2125-3.877 3.877v0.12305l0.92188 0.30664c0.7546-1.4499 1.9349-2.6302 3.3848-3.3848l-0.30664-0.92188z" color="#eff0f1" fill="#00b200" stroke="#006400" stroke-width=".4"/>
 <path d="m16.006 4-0.30664 0.92188c1.4499 0.75461 2.6302 1.9349 3.3848 3.3848l0.92188-0.30664v-0.12305c-0.85617-1.6644-2.2125-3.0208-3.877-3.877z" color="#eff0f1" fill="#00b200" stroke="#006400" stroke-width=".4"/>
 <path d="m12 6c-3.878 0-7 3.122-7 7s3.122 7 7 7 7-3.122 7-7-3.122-7-7-7z" color="#eff0f1" fill="#eae6d8" stroke="#a0968c" stroke-width=".4"/>
 <path d="m12 7c3.324 0 6 2.676 6 6s-2.676 6-6 6-6-2.676-6-6 2.676-6 6-6z" color="#eff0f1" fill="#96928f"/>
 <path d="m8.998 10.002v6h2v-6z" color="#eff0f1" fill="#000001"/>
 <path d="m13.006 10.002v6h2v-6z" color="#eff0f1" fill="#000001"/>
</svg>
