<?xml version="1.0" encoding="UTF-8"?>
<svg version="1.1" viewBox="0 0 24 24" xmlns="http://www.w3.org/2000/svg" xmlns:cc="http://creativecommons.org/ns#" xmlns:dc="http://purl.org/dc/elements/1.1/" xmlns:rdf="http://www.w3.org/1999/02/22-rdf-syntax-ns#">
 <metadata>
  <rdf:RDF>
   <cc:Work rdf:about="">
    <dc:format>image/svg+xml</dc:format>
    <dc:type rdf:resource="http://purl.org/dc/dcmitype/StillImage"/>
    <dc:title/>
   </cc:Work>
  </rdf:RDF>
 </metadata>
 <defs>
  <style id="current-color-scheme" type="text/css">.ColorScheme-Text {
        color:#eff0f1;
      }</style>
 </defs>
 <g transform="translate(1,1)" fill="#eae6d8" stroke="#a0968c" stroke-width=".4">
  <path class="ColorScheme-Text" transform="translate(-1,-1)" d="m11.5 4v1.8125h1v-1.8125h-1m-4.8125 1.9688-0.71875 0.71875 1.2812 1.3125 0.71875-0.75-1.2812-1.2812m10.625 0-1.2812 1.2812 0.71875 0.75 1.2812-1.3125-0.71875-0.71875m-5.3125 1.0312c-2.7614 0-5 2.2386-5 5s2.2386 5 5 5 5-2.2386 5-5-2.2386-5-5-5zm0 1v8c-2.2091 0-4-1.7909-4-4s1.7909-4 4-4m-8 3.5v1h1.8125v-1h-1.8125m14.188 0v1h1.8125v-1zm-10.938 4.5312-1.2812 1.2812 0.71875 0.71875 1.2812-1.2812-0.71875-0.71875m9.5 0-0.71875 0.71875 1.2812 1.2812 0.71875-0.71875-1.2812-1.2812m-5.25 2.1562v1.8125h1v-1.8125z" color="#eff0f1" fill="#eae6d8" stroke="#a0968c" stroke-width=".4"/>
 </g>
</svg>
