<?xml version="1.0" encoding="UTF-8"?>
<svg version="1.1" viewBox="0 0 24 24" xmlns="http://www.w3.org/2000/svg" xmlns:cc="http://creativecommons.org/ns#" xmlns:dc="http://purl.org/dc/elements/1.1/" xmlns:rdf="http://www.w3.org/1999/02/22-rdf-syntax-ns#">
 <metadata>
  <rdf:RDF>
   <cc:Work rdf:about="">
    <dc:format>image/svg+xml</dc:format>
    <dc:type rdf:resource="http://purl.org/dc/dcmitype/StillImage"/>
    <dc:title/>
   </cc:Work>
  </rdf:RDF>
 </metadata>
 <defs>
  <style id="current-color-scheme" type="text/css">.ColorScheme-Text {
        color:#eff0f1;
      }</style>
 </defs>
 <g transform="translate(1,1)" fill="#eae6d8" stroke="#a0968c" stroke-width=".4">
  <path class="ColorScheme-Text" d="m10.5 2v2.0254a7 7 0 0 0-6.4824 6.4746h-2.0176v1h2.0254a7 7 0 0 0 6.4746 6.4824v2.0176h1v-2.0254a7 7 0 0 0 6.4824-6.4746h2.0176v-1h-2.0254a7 7 0 0 0-6.4746-6.4824v-2.0176zm0 3.0254v2.0098a4 4 0 0 0-3.4629 3.4648h-2.0117a6 6 0 0 1 5.4746-5.4746zm1 0a6 6 0 0 1 5.4746 5.4746h-2.0098a4 4 0 0 0-3.4648-3.4629zm-1 3.0156v2.459h-2.4531a3 3 0 0 1 2.4531-2.459zm1 0.00586a3 3 0 0 1 2.459 2.4531h-2.459zm-6.4746 3.4531h2.0098a4 4 0 0 0 3.4648 3.4629v2.0117a6 6 0 0 1-5.4746-5.4746zm3.0156 0h2.459v2.4531a3 3 0 0 1-2.459-2.4531zm3.459 0h2.4531a3 3 0 0 1-2.4531 2.459zm3.4629 0h2.0117a6 6 0 0 1-5.4746 5.4746v-2.0098a4 4 0 0 0 3.4629-3.4648z" color="#eff0f1" fill="#eae6d8" stroke="#a0968c" stroke-width=".4"/>
 </g>
</svg>
