<?xml version="1.0" encoding="UTF-8"?>
<svg version="1.1" viewBox="0 0 24 24" xmlns="http://www.w3.org/2000/svg" xmlns:cc="http://creativecommons.org/ns#" xmlns:dc="http://purl.org/dc/elements/1.1/" xmlns:rdf="http://www.w3.org/1999/02/22-rdf-syntax-ns#">
 <metadata>
  <rdf:RDF>
   <cc:Work rdf:about="">
    <dc:format>image/svg+xml</dc:format>
    <dc:type rdf:resource="http://purl.org/dc/dcmitype/StillImage"/>
    <dc:title/>
   </cc:Work>
  </rdf:RDF>
 </metadata>
 <defs>
  <style id="current-color-scheme" type="text/css">.ColorScheme-Text {
        color:#eff0f1;
      }
      .ColorScheme-Highlight {
        color:#3daee9;
      }</style>
 </defs>
 <path class="ColorScheme-Text" d="m4 8v9h5v-4h7v2h1v-2h1v2h1v-2h1v-1h-11v-4zm1 1h3v7h-3z" color="#eff0f1" fill="#eae6d8" stroke="#a0968c" stroke-width=".4"/>
 <path class="ColorScheme-Highlight" d="m17.5 3a3.5 3.5 0 0 0-3.5 3.5 3.5 3.5 0 0 0 0.69922 2.0938l0.7168-0.7168a2.5 2.5 0 0 1-0.41602-1.377 2.5 2.5 0 0 1 2.5-2.5 2.5 2.5 0 0 1 1.377 0.41602l0.7168-0.7168a3.5 3.5 0 0 0-2.0938-0.69922zm2.8008 1.4062-0.7168 0.7168a2.5 2.5 0 0 1 0.41602 1.377 2.5 2.5 0 0 1-2.5 2.5 2.5 2.5 0 0 1-1.377-0.41602l-0.7168 0.7168a3.5 3.5 0 0 0 2.0938 0.69922 3.5 3.5 0 0 0 3.5-3.5 3.5 3.5 0 0 0-0.69922-2.0938z" color="#3daee9" fill="#009600" stroke="#006400" stroke-width=".4"/>
</svg>
