<?xml version="1.0" encoding="UTF-8"?>
<svg version="1.1" viewBox="0 0 24 24" xmlns="http://www.w3.org/2000/svg" xmlns:cc="http://creativecommons.org/ns#" xmlns:dc="http://purl.org/dc/elements/1.1/" xmlns:rdf="http://www.w3.org/1999/02/22-rdf-syntax-ns#">
 <metadata>
  <rdf:RDF>
   <cc:Work rdf:about="">
    <dc:format>image/svg+xml</dc:format>
    <dc:type rdf:resource="http://purl.org/dc/dcmitype/StillImage"/>
    <dc:title/>
   </cc:Work>
  </rdf:RDF>
 </metadata>
 <defs>
  <style id="current-color-scheme" type="text/css">.ColorScheme-Text {
        color:#eff0f1;
      }
      .ColorScheme-Highlight {
        color:#3daee9;
      }</style>
 </defs>
 <path class="ColorScheme-Text" d="m12 4c-4.432 0-8 3.568-8 8s3.568 8 8 8c1.8964 0 3.6328-0.65629 5-1.752v-1.248h-0.09375c-1.2614 1.2378-2.9912 2-4.9062 2-3.878 0-7-3.122-7-7s3.122-7 7-7 7 3.122 7 7c0 0.69617-0.10544 1.3662-0.29297 2h1.0332c0.16371-0.63965 0.25977-1.3079 0.25977-2 0-4.432-3.568-8-8-8m-1 2v7h6v-1h-5v-6h-1" color="#eff0f1" fill="#eae6d8" stroke="#a0968c" stroke-width=".4"/>
 <path class="ColorScheme-Highlight" d="m14.656 15v1h2.8438a1.5 1.5 0 0 1 1.5 1.5 1.5 1.5 0 0 1-1.5 1.5v1a2.5 2.5 0 0 0 2.5-2.5 2.5 2.5 0 0 0-2.5-2.5h-2.8438" color="#3daee9" fill="#009600" stroke="#006400" stroke-width=".4"/>
</svg>
