<?xml version="1.0" encoding="UTF-8"?>
<svg version="1.1" viewBox="0 0 24 24" xmlns="http://www.w3.org/2000/svg" xmlns:cc="http://creativecommons.org/ns#" xmlns:dc="http://purl.org/dc/elements/1.1/" xmlns:rdf="http://www.w3.org/1999/02/22-rdf-syntax-ns#">
 <metadata>
  <rdf:RDF>
   <cc:Work rdf:about="">
    <dc:format>image/svg+xml</dc:format>
    <dc:type rdf:resource="http://purl.org/dc/dcmitype/StillImage"/>
    <dc:title/>
   </cc:Work>
  </rdf:RDF>
 </metadata>
 <style id="current-color-scheme" type="text/css">.ColorScheme-Text {
        color:#eff0f1;
      }</style>
 <g stroke-width=".4">
  <path d="M 7,4 A 2,2 0 0 0 5,6 2,2 0 0 0 5.67969,7.5 2,2 0 0 0 5,9 2,2 0 0 0 7,11 2,2 0 0 0 9,9 2,2 0 0 0 8.32031,7.5 2,2 0 0 0 9,6 2,2 0 0 0 7,4 M 7,5 A 1,1 0 0 1 8,6 1,1 0 0 1 7,7 1,1 0 0 1 6,6 1,1 0 0 1 7,5 M 7,8 A 1,1 0 0 1 8,9 1,1 0 0 1 7,10 1,1 0 0 1 6,9 1,1 0 0 1 7,8" fill="#b40000" stroke="#640000"/>
  <path d="m18 13a2 2 0 0 0-2 2v3a2 2 0 0 0 2 2 2 2 0 0 0 2-2 2 2 0 0 0-2-2 2 2 0 0 0-1 0.26953v-1.2695a1 1 0 0 1 1-1 1 1 0 0 1 1 1h1a2 2 0 0 0-2-2m0 4a1 1 0 0 1 1 1 1 1 0 0 1-1 1 1 1 0 0 1-1-1 1 1 0 0 1 1-1" fill="#009600" stroke="#006400"/>
  <path d="m13 13v1h1v6h1v-7h-1z" fill="#009600" stroke="#006400"/>
 </g>
 <path class="ColorScheme-Text" d="m12 4v1c2.698 0.0062 5.1523 1.5623 6.3086 4h-3.3086v1h5v-5h-1v3.1699c-1.3977-2.5631-4.0806-4.1613-7-4.1699zm-8 10v5h1v-3.1699c1.3977 2.5631 4.0806 4.1613 7 4.1699v-1c-2.698-0.006155-5.1523-1.5623-6.3086-4h3.3086v-1z" color="#eff0f1" fill="#eae6d8" stroke="#a0968c" stroke-width=".4"/>
</svg>
