<?xml version="1.0" encoding="UTF-8"?>
<svg version="1.1" viewBox="0 0 24 24" xmlns="http://www.w3.org/2000/svg" xmlns:cc="http://creativecommons.org/ns#" xmlns:dc="http://purl.org/dc/elements/1.1/" xmlns:rdf="http://www.w3.org/1999/02/22-rdf-syntax-ns#">
 <metadata>
  <rdf:RDF>
   <cc:Work rdf:about="">
    <dc:format>image/svg+xml</dc:format>
    <dc:type rdf:resource="http://purl.org/dc/dcmitype/StillImage"/>
    <dc:title/>
   </cc:Work>
  </rdf:RDF>
 </metadata>
 <style id="current-color-scheme" type="text/css">.ColorScheme-Text {
            color:#eff0f1;
        }</style>
 <g class="ColorScheme-Text" transform="translate(1,1)" color="#eff0f1">
  <path d="m5 3v5h15v8h-2v-5h-1v5h-8v1h8v1h1v-1h3v-14zm1 1h14v3h-14v-2zm1 1v1h2v-1zm10 0v1h2v-1z" fill="#eae6d8" stroke="#a0968c" stroke-width=".4"/>
  <path d="m4.5 9a3.5 3.5 0 0 0-3.5 3.5v3a3.5 3.5 0 1 0 7 0v-3a3.5 3.5 0 0 0-3.5-3.5zm0 1a2.5 2.5 0 0 1 2.5 2.5v3a2.5 2.5 0 1 1-5 0v-3a2.5 2.5 0 0 1 2.5-2.5z" fill="#009600" stroke="#006400" stroke-width=".4"/>
  <path d="m4 11h1v2h-1z" fill="#b40000" stroke="#640000" stroke-width=".4"/>
 </g>
</svg>
