<?xml version="1.0" encoding="UTF-8"?>
<svg version="1.1" viewBox="0 0 24 24" xmlns="http://www.w3.org/2000/svg" xmlns:cc="http://creativecommons.org/ns#" xmlns:dc="http://purl.org/dc/elements/1.1/" xmlns:rdf="http://www.w3.org/1999/02/22-rdf-syntax-ns#">
 <metadata>
  <rdf:RDF>
   <cc:Work rdf:about="">
    <dc:format>image/svg+xml</dc:format>
    <dc:type rdf:resource="http://purl.org/dc/dcmitype/StillImage"/>
    <dc:title/>
   </cc:Work>
  </rdf:RDF>
 </metadata>
 <defs>
  <style id="current-color-scheme" type="text/css">.ColorScheme-Text {
        color:#eff0f1;
      }</style>
 </defs>
 <path class="ColorScheme-Text" d="m7 4-3 2 3 2zm4 0v4l3-2zm-3.8848 5.0293c-1.1727 0.02548-2.074 0.21559-2.7285 0.49609l0.36914 1.2637c0.31364-0.10206 1.4999-0.45898 2.1953-0.45898h0.095703c0.96819 0.03822 1.0352 0.36872 1.0352 1.1465v0.30664l-0.50391 0.07617c-2.3455 0.31876-3.5996 0.58648-3.5996 2.2695 0 1.173 0.91358 1.9004 2.2363 1.9004 0.91365 0 1.5133-0.35729 2.127-0.8418l0.19141 0.71289h1.4453v-4.7168c0-1.4408-1.0648-2.1543-2.7012-2.1543zm6.127 1.541c0 1.8985 1.3411 3.4707 2.3496 4.4355-1.1988 1.2178-2.677 1.7665-5.3809 2.2305l0.27734 1.334c6.0274-1.0344 8.7227-4.8245 8.7227-8h-1.4766c0 0.9235-0.46648 2.706-1.2656 3.3926-0.81579-0.7731-1.7999-1.9682-2.0371-3.3711zm-5.1602 2.207v1.5684c-0.50454 0.31876-0.88646 0.54883-1.541 0.54883-0.58637 0-0.87305-0.34557-0.87305-0.83008 0-0.91803 0.86014-1.0707 1.9102-1.2109z" color="#eff0f1" fill="#eae6d8" stroke="#a0968c" stroke-width=".4"/>
</svg>
