<?xml version="1.0" encoding="UTF-8"?>
<svg version="1.1" viewBox="0 0 24 24" xmlns="http://www.w3.org/2000/svg" xmlns:cc="http://creativecommons.org/ns#" xmlns:dc="http://purl.org/dc/elements/1.1/" xmlns:rdf="http://www.w3.org/1999/02/22-rdf-syntax-ns#">
 <metadata>
  <rdf:RDF>
   <cc:Work rdf:about="">
    <dc:format>image/svg+xml</dc:format>
    <dc:type rdf:resource="http://purl.org/dc/dcmitype/StillImage"/>
    <dc:title/>
   </cc:Work>
  </rdf:RDF>
 </metadata>
 <defs>
  <style id="current-color-scheme" type="text/css">.ColorScheme-Text {
        color:#eff0f1;
      }</style>
 </defs>
 <g transform="translate(1,1)">
  <path transform="translate(-378.86,-540.08)" d="m397.86 546.08h-4l2 3 2-3" color="#eff0f1" fill="#009600" stroke="#006400" stroke-width=".6"/>
  <path transform="translate(-378.86,-540.08)" d="m397.86 556.08-2-3-2 3h4" color="#eff0f1" fill="#009600" stroke="#006400" stroke-width=".6"/>
  <path transform="translate(-378.86,-540.08)" d="m394.86 549.08h-2v-6h-7v6h-4v1h13v-1" color="#eff0f1" fill="#eae6d8" stroke="#a0968c" stroke-width=".4"/>
  <path transform="translate(-378.86,-540.08)" d="m394.86 552.08h-13v1h2v6h9v-6h2v-1" color="#eff0f1" fill="#eae6d8" stroke="#a0968c" stroke-width=".4"/>
  <path transform="translate(-378.86,-540.08)" d="m391.86 544.08v5h-5v-5h5" color="#eff0f1" fill="#009600" stroke="#006400" stroke-width=".6"/>
  <path transform="translate(-378.86,-540.08)" d="m391.86 553.08v5h-7v-5h7" color="#eff0f1" fill="#009600" stroke="#006400" stroke-width=".6"/>
 </g>
</svg>
