<?xml version="1.0" encoding="UTF-8"?>
<svg version="1.1" viewBox="0 0 24 24" xmlns="http://www.w3.org/2000/svg" xmlns:cc="http://creativecommons.org/ns#" xmlns:dc="http://purl.org/dc/elements/1.1/" xmlns:rdf="http://www.w3.org/1999/02/22-rdf-syntax-ns#">
 <metadata>
  <rdf:RDF>
   <cc:Work rdf:about="">
    <dc:format>image/svg+xml</dc:format>
    <dc:type rdf:resource="http://purl.org/dc/dcmitype/StillImage"/>
    <dc:title/>
   </cc:Work>
  </rdf:RDF>
 </metadata>
 <defs>
  <style id="current-color-scheme" type="text/css">.ColorScheme-Text {
        color:#eff0f1;
      }</style>
 </defs>
 <g transform="translate(1,1)">
  <path d="m4 2.998v0.00195h6v1h7v2h1v-3.002h-13z" color="#eff0f1" fill="#eae6d8" stroke="#a0968c" stroke-width=".4"/>
  <path d="m8.293 3-3.5 3.5 3.5 3.5 0.70703-0.70703-2.293-2.293h5.293v-1h-5.293l2.293-2.293z" color="#eff0f1" fill="#007800" stroke="#006400" stroke-width=".4"/>
  <path d="m13.707 6-0.70703 0.70703 2.293 2.293h-5.293v1h5.293l-2.293 2.293 0.70703 0.70703 3.5-3.5-0.70703-0.70703z" color="#eff0f1" fill="#007800" stroke="#006400" stroke-width=".4"/>
  <path d="m4 10v9h10v-0.0098l0.0078 0.0098 3.9922-3.9922v-2.0078h-1v1h-4v4h-8v-8z" color="#eff0f1" fill="#eae6d8" stroke="#a0968c" stroke-width=".4"/>
 </g>
</svg>
