<?xml version="1.0" encoding="UTF-8"?>
<svg version="1.1" viewBox="0 0 24 24" xmlns="http://www.w3.org/2000/svg" xmlns:cc="http://creativecommons.org/ns#" xmlns:dc="http://purl.org/dc/elements/1.1/" xmlns:rdf="http://www.w3.org/1999/02/22-rdf-syntax-ns#">
 <metadata>
  <rdf:RDF>
   <cc:Work rdf:about="">
    <dc:format>image/svg+xml</dc:format>
    <dc:type rdf:resource="http://purl.org/dc/dcmitype/StillImage"/>
    <dc:title/>
   </cc:Work>
  </rdf:RDF>
 </metadata>
 <defs>
  <style id="current-color-scheme" type="text/css">.ColorScheme-Text {
        color:#eff0f1;
      }</style>
 </defs>
 <path class="ColorScheme-Text" d="m11.969 4c-1.7509 0-3.4069 0.4216-4.9688 1.2637l0.77734 1.7871c0.78092-0.38352 1.4827-0.65748 2.1074-0.82422 0.63297-0.16673 1.2779-0.25 1.9355-0.25 0.98644 0 1.7434 0.22025 2.2695 0.66211 0.5261 0.44187 0.78907 1.075 0.78907 1.9004 0 0.44187-0.0568 0.83057-0.17188 1.1641-0.11508 0.33348-0.31231 0.66651-0.5918 1-0.27948 0.33349-0.86767 0.88335-1.7637 1.6504-1.1001 1.0033-2.2511 2.7855-2.3516 4.6465h2l-6e-3 -0.0312c0-0.75868 0.13147-1.3676 0.39453-1.8262 0.27128-0.46689 0.81313-1.055 1.627-1.7637 0.99467-0.84207 1.6575-1.4752 1.9863-1.9004 0.33704-0.4252 0.58756-0.87438 0.75196-1.3496 0.1645-0.47523 0.24609-1.0217 0.24609-1.6387 0-1.4173-0.44773-2.519-1.3438-3.3027-0.89601-0.79204-2.1256-1.1875-3.6875-1.1875zm-1.9688 14v2h2v-2h-2" color="#eff0f1" fill="#eae6d8" stroke="#a0968c" stroke-width=".4"/>
 <path d="M 15.99023,14 15,14.9902 17.00976,17 15,19.0098 15.99023,20 18,17.9902 20.00976,20 21,19.0098 18.99023,17 21,14.9902 20.00976,14 18,16.0098 15.99023,14" fill="#b40000" stroke="#640000" stroke-width=".6"/>
</svg>
