<?xml version="1.0" encoding="UTF-8"?>
<svg version="1.1" viewBox="0 0 24 24" xmlns="http://www.w3.org/2000/svg" xmlns:cc="http://creativecommons.org/ns#" xmlns:dc="http://purl.org/dc/elements/1.1/" xmlns:rdf="http://www.w3.org/1999/02/22-rdf-syntax-ns#">
 <metadata>
  <rdf:RDF>
   <cc:Work rdf:about="">
    <dc:format>image/svg+xml</dc:format>
    <dc:type rdf:resource="http://purl.org/dc/dcmitype/StillImage"/>
    <dc:title/>
   </cc:Work>
  </rdf:RDF>
 </metadata>
 <defs>
  <style id="current-color-scheme" type="text/css">.ColorScheme-Text {
        color:#eff0f1;
      }</style>
 </defs>
 <path class="ColorScheme-Text" d="m10.549 19.492c-1.3863-0.27789-2.8119-1.0548-3.8471-2.0966-1.1241-1.1312-1.8125-2.4799-2.0933-4.1008-0.28209-1.6285-0.069425-3.1054 0.66879-4.6445 1.8687-3.896 6.7141-5.4004 10.538-3.2719 0.45091 0.25099 1.0208 0.71632 1.6243 1.3264 0.7906 0.79912 0.99861 1.0839 1.3898 1.903 0.63098 1.3211 0.81807 2.2516 0.75596 3.7597-0.08522 2.0695-0.70543 3.5006-2.1607 4.9857-1.836 1.8736-4.3297 2.6494-6.8758 2.139z" color="#eff0f1" fill="#828282"/>
 <path class="ColorScheme-Text" d="m12 4c-4.432 0-8 3.568-8 8s3.568 8 8 8 8-3.568 8-8-3.568-8-8-8m0 1c3.878 0 7 3.122 7 7s-3.122 7-7 7-7-3.122-7-7 3.122-7 7-7" color="#eff0f1" fill="#eae6d8" stroke="#a0968c" stroke-width=".4"/>
</svg>
