<?xml version="1.0" encoding="UTF-8"?>
<svg version="1.1" viewBox="0 0 24 24" xmlns="http://www.w3.org/2000/svg" xmlns:cc="http://creativecommons.org/ns#" xmlns:dc="http://purl.org/dc/elements/1.1/" xmlns:rdf="http://www.w3.org/1999/02/22-rdf-syntax-ns#">
 <metadata>
  <rdf:RDF>
   <cc:Work rdf:about="">
    <dc:format>image/svg+xml</dc:format>
    <dc:type rdf:resource="http://purl.org/dc/dcmitype/StillImage"/>
    <dc:title/>
   </cc:Work>
  </rdf:RDF>
 </metadata>
 <defs>
  <style id="current-color-scheme" type="text/css">.ColorScheme-Text {
        color:#eff0f1;
      }</style>
 </defs>
 <g transform="translate(1,1)" stroke="#a0968c" stroke-width=".4">
  <path class="ColorScheme-Text" d="m10.543 18.326c-0.034-0.0039-0.16117-0.01654-0.2826-0.02787-0.47671-0.044506-1.0293-0.16271-1.519-0.32491-2.1458-0.71081-3.8777-2.4063-4.7041-4.6053-0.31316-0.83328-0.47922-1.6677-0.51751-2.6003l-0.01199-0.29201h15.004l-0.01136 0.25493c-0.0062 0.14021-0.02301 0.38008-0.03726 0.53303-0.21658 2.3262-1.4088 4.4204-3.2667 5.7381-0.9879 0.70066-2.1301 1.141-3.3463 1.2902-0.22321 0.02737-1.1569 0.05173-1.307 0.0341z" color="#eff0f1" fill="#828282"/>
  <path class="ColorScheme-Text" transform="translate(-551.29,-607.65)" d="m570.29 618.65c0 4.432-3.568 8-8 8s-8-3.568-8-8v-1h16v1m-1 0h-14c0 3.878 3.122 7 7 7s7-3.122 7-7" color="#eff0f1" fill="#eae6d8"/>
 </g>
</svg>
