<?xml version="1.0" encoding="UTF-8"?>
<svg version="1.1" viewBox="0 0 24 24" xmlns="http://www.w3.org/2000/svg" xmlns:cc="http://creativecommons.org/ns#" xmlns:dc="http://purl.org/dc/elements/1.1/" xmlns:rdf="http://www.w3.org/1999/02/22-rdf-syntax-ns#">
 <metadata>
  <rdf:RDF>
   <cc:Work rdf:about="">
    <dc:format>image/svg+xml</dc:format>
    <dc:type rdf:resource="http://purl.org/dc/dcmitype/StillImage"/>
    <dc:title/>
   </cc:Work>
  </rdf:RDF>
 </metadata>
 <defs>
  <style id="current-color-scheme" type="text/css">.ColorScheme-Text {
        color:#eff0f1;
      }</style>
 </defs>
 <path class="ColorScheme-Text" d="m11.4 19.729c-1.8088-0.18465-3.4219-0.93981-4.6781-2.19-1.057-1.0519-1.7759-2.3548-2.1192-3.8405-0.13288-0.57509-0.18825-2.0486-0.10047-2.6735 0.45242-3.2204 2.8043-5.7658 5.9907-6.4836 0.73948-0.16659 2.0108-0.19172 2.7989-0.055318 2.7717 0.47966 5.0356 2.4074 5.9543 5.0702 1.4698 4.2601-1.0319 8.8933-5.3842 9.9712-0.79834 0.19773-1.742 0.27494-2.462 0.20144zm3.3339-7.8161c-0.84216-1.8969-1.7599-3.2734-2.8481-2.5541-1.6444 1.0869-2.2759 1.2584-2.1975 2.9941 0.058357 1.2925 0.8438 1.8034 2.2763 2.2132 1.4061-0.56865 2.101-1.3365 2.7694-2.6532z" color="#eff0f1" fill="#828282"/>
 <path class="ColorScheme-Text" d="m12 4c-4.432 0-8 3.568-8 8s3.568 8 8 8 8-3.568 8-8-3.568-8-8-8m0 1c3.878 0 7 3.122 7 7s-3.122 7-7 7-7-3.122-7-7 3.122-7 7-7m0 4a3 3 0 0 0-3 3 3 3 0 0 0 3 3 3 3 0 0 0 3-3 3 3 0 0 0-3-3m0 1a2 2 0 0 1 2 2 2 2 0 0 1-2 2 2 2 0 0 1-2-2 2 2 0 0 1 2-2" color="#eff0f1" fill="#eae6d8" stroke="#a0968c" stroke-width=".4"/>
</svg>
