<?xml version="1.0" encoding="UTF-8"?>
<svg version="1.1" viewBox="0 0 24 24" xmlns="http://www.w3.org/2000/svg" xmlns:cc="http://creativecommons.org/ns#" xmlns:dc="http://purl.org/dc/elements/1.1/" xmlns:rdf="http://www.w3.org/1999/02/22-rdf-syntax-ns#">
 <metadata>
  <rdf:RDF>
   <cc:Work rdf:about="">
    <dc:format>image/svg+xml</dc:format>
    <dc:type rdf:resource="http://purl.org/dc/dcmitype/StillImage"/>
    <dc:title/>
   </cc:Work>
  </rdf:RDF>
 </metadata>
 <defs>
  <style id="current-color-scheme" type="text/css">.ColorScheme-Text {
        color:#eff0f1;
      }</style>
 </defs>
 <g transform="translate(1,1)" stroke="#a0968c" stroke-width=".4">
  <path class="ColorScheme-Text" d="m7.1082 17.601c0.023703-0.10371 0.74992-4.6884 0.74992-4.7343 0-0.03405-0.38392-0.41649-1.1662-1.1617-0.64141-0.61101-1.3727-1.3093-1.625-1.5519l-0.45883-0.44094 2.2432-0.33519c1.3508-0.20184 2.2536-0.34744 2.2693-0.366 0.014383-0.016948 0.47321-1.0068 1.0196-2.1997 0.54641-1.1929 1.0006-2.1612 1.0094-2.1517 0.0088 0.00946 0.45959 0.98699 1.0019 2.1723 0.54229 1.1853 0.9997 2.1675 1.0165 2.1827 0.01678 0.015202 1.0285 0.17652 2.2482 0.35847 1.2197 0.18196 2.2272 0.33332 2.2388 0.33636s-0.50458 0.50638-1.1471 1.1185c-0.6425 0.61215-1.3774 1.3137-1.6331 1.559l-0.4649 0.44604 0.38223 2.3866c0.21023 1.3126 0.37922 2.3955 0.37554 2.4063-0.0037 0.01086-0.91098-0.47174-2.0162-1.0725l-2.0095-1.0922-2.0087 1.0918c-1.1048 0.60047-2.0146 1.0918-2.0218 1.0918-0.00723 0-0.00863-0.01973-0.00312-0.04385z" color="#eff0f1" fill="#828282"/>
  <path class="ColorScheme-Text" transform="translate(-.99999 -.99999)" d="m12 4-2.4727 5.2676-5.5273 0.84375 4 4.0996-0.94336 5.7891 4.9434-2.7324 4.9434 2.7324-0.94336-5.7891 4-4.0996-5.5273-0.84375zm0 2 1.8535 4.114 4.1465 0.63476-3 2.9094 0.70898 4.5066-3.709-2.0508-3.709 2.0508 0.70898-4.5066-3-2.9094 4.1465-0.63476z" color="#eff0f1" fill="#eae6d8"/>
 </g>
</svg>
