<?xml version="1.0" encoding="UTF-8"?>
<svg version="1.1" viewBox="0 0 24 24" xmlns="http://www.w3.org/2000/svg" xmlns:cc="http://creativecommons.org/ns#" xmlns:dc="http://purl.org/dc/elements/1.1/" xmlns:rdf="http://www.w3.org/1999/02/22-rdf-syntax-ns#">
 <metadata>
  <rdf:RDF>
   <cc:Work rdf:about="">
    <dc:format>image/svg+xml</dc:format>
    <dc:type rdf:resource="http://purl.org/dc/dcmitype/StillImage"/>
    <dc:title/>
   </cc:Work>
  </rdf:RDF>
 </metadata>
 <defs>
  <style id="current-color-scheme" type="text/css">.ColorScheme-Text {
        color:#eff0f1;
      }</style>
 </defs>
 <path class="ColorScheme-Text" d="m12 22.588c0.7415-0.4706 7e-3 1.8e-5 0.78125-0.48828l8.2188-5.4688v-9.2188c-1.1488-0.7517-0.22209-0.1443-0.75-0.5l-7.3438-4.9062c-0.89535-0.5962-8e-3 5e-5 -0.90625-0.59375-8.0233 5.3242-6.0538 4.0138-8.375 5.5625-0.63161 0.4616-0.11719 0.09495-0.625 0.46875v9.1875c2.3238 1.5467 0.33991 0.2266 0.5625 0.375l7.6562 5.0938 0.40625 0.25c0.28276 0.182-1.2234-0.79082 0.375 0.23828zm0.5-1.5195v-7.75l0.0625-0.09375 0.21875-0.125 7.2188-4.8125v7.7812zm-1 0-7.5-5v-7.625l7.5 5zm0.375-8.5938-7.3125-4.875 7.4375-4.9688 7.3438 4.875-7.125 4.75z" color="#eff0f1" fill="#eae6d8" stroke="#a0968c" stroke-width=".4"/>
 <path class="ColorScheme-Text" d="m12.418 21.125c0.01267 0 1.7494-1.1472 3.8594-2.5488l3.8359-2.5488v-3.957c0-2.1774-0.01129-3.959-0.02539-3.959-0.01408 0-1.7508 1.1485-3.8594 2.5527l-3.834 2.5527v3.9551c0 2.1748 0.01074 3.9531 0.02344 3.9531z" color="#eff0f1" fill="#646464"/>
 <path class="ColorScheme-Text" d="m11.91 12.605c0.11473-0.0047 7.683-5.1113 7.6387-5.1543-0.02192-0.0211-1.7215-1.1646-3.7773-2.5391s-3.7495-2.4924-3.7637-2.4824c-0.64001 0.4148-7.6024 5.1254-7.6094 5.1484-0.01503 0.0498 7.4274 5.0273 7.5117 5.0273z" color="#eff0f1" fill="#828282"/>
 <path class="ColorScheme-Text" d="m11.572 21.188c0.0126 0 0.02416-1.7511 0.02344-3.8906l-2e-3 -3.8887-3.832-2.5645c-2.1071-1.41-3.8358-2.5664-3.8418-2.5664-0.0064-0.0017-0.01172 1.7527-0.01172 3.8984v3.9004l3.8204 2.5566c2.1015 1.4055 3.8312 2.5547 3.8438 2.5547z" color="#eff0f1" fill="#b4b4b4"/>
</svg>
