<?xml version="1.0" encoding="UTF-8"?>
<svg version="1.1" viewBox="0 0 24 24" xmlns="http://www.w3.org/2000/svg" xmlns:cc="http://creativecommons.org/ns#" xmlns:dc="http://purl.org/dc/elements/1.1/" xmlns:rdf="http://www.w3.org/1999/02/22-rdf-syntax-ns#">
 <metadata>
  <rdf:RDF>
   <cc:Work rdf:about="">
    <dc:format>image/svg+xml</dc:format>
    <dc:type rdf:resource="http://purl.org/dc/dcmitype/StillImage"/>
    <dc:title/>
   </cc:Work>
  </rdf:RDF>
 </metadata>
 <defs>
  <style id="current-color-scheme" type="text/css">.ColorScheme-Text {
        color:#eff0f1;
      }</style>
 </defs>
 <g transform="translate(1,1)">
  <path d="m18.514 3.0078a2 9 45 0 0-7.4453 5.0977 2 9 45 0 0-3.543 4.1133c1.0761 0.34264 1.9152 1.1817 2.2578 2.2578a2 9 45 0 0 4.1133-3.543 2 9 45 0 0 4.9492-7.7773 2 9 45 0 0-0.33203-0.14844z" color="#eff0f1" fill="#eae6d8" stroke="#a0968c" stroke-width=".4"/>
  <path d="m16.5 11c-0.48645 1.7025-1.6762 3.1661-2.2012 4.3379-0.1837 0.34839-0.29883 0.7394-0.29883 1.1621 0 1.385 1.115 2.5 2.5 2.5s2.5-1.115 2.5-2.5c0-0.42271-0.11318-0.81372-0.29688-1.1621-0.52492-1.1718-1.7167-2.6354-2.2031-4.3379z" color="#eff0f1" fill="#009600"/>
  <path d="m7 13.664c-4 1.0718-1 3.6039-4 5.3359 4.0034 0 6-2.0008 6-3.3359 0-0.66488 0.0676-1.8894-2-2z" color="#eff0f1" fill="#b7af9c" stroke="#a0968c" stroke-width=".4"/>
  <path d="m17.643 14.859c0.51885 0.3606 0.85742 0.95816 0.85742 1.6406 0 1.108-0.892 2-2 2-0.68248 0-1.28-0.33854-1.6406-0.85742 0.32352 0.22486 0.71508 0.35742 1.1406 0.35742 1.108 0 2-0.892 2-2 0-0.42554-0.13256-0.8171-0.35742-1.1406z" color="#eff0f1" fill="#eae6d8"/>
 </g>
</svg>
