<?xml version="1.0" encoding="UTF-8"?>
<svg version="1.1" viewBox="0 0 24 24" xmlns="http://www.w3.org/2000/svg" xmlns:cc="http://creativecommons.org/ns#" xmlns:dc="http://purl.org/dc/elements/1.1/" xmlns:rdf="http://www.w3.org/1999/02/22-rdf-syntax-ns#">
 <metadata>
  <rdf:RDF>
   <cc:Work rdf:about="">
    <dc:format>image/svg+xml</dc:format>
    <dc:type rdf:resource="http://purl.org/dc/dcmitype/StillImage"/>
    <dc:title/>
   </cc:Work>
  </rdf:RDF>
 </metadata>
 <defs>
  <style id="current-color-scheme" type="text/css">.ColorScheme-Text {
        color:#eff0f1;
      }</style>
 </defs>
 <g transform="translate(1,1)" stroke="#a0968c" stroke-width=".4">
  <path class="ColorScheme-Text" d="m10.529 10.914v-7.413l0.80118 0.062065c1.8657 0.14453 3.4368 0.84924 4.9039 2.1996 0.84285 0.77581 1.0646 1.0523 1.4816 1.8474 0.67268 1.2826 0.87213 2.1859 0.80592 3.65-0.09086 2.0091-0.75206 3.3984-2.3035 4.8402-0.87811 0.81604-1.6811 1.3133-2.7633 1.7111-0.70167 0.25792-1.9447 0.51147-2.5195 0.51391l-0.40637 0.0017z" color="#eff0f1" fill="#828282"/>
  <path class="ColorScheme-Text" transform="translate(-551.29,-607.65)" d="m562.29 610.65c4.432 0 8 3.568 8 8s-3.568 8-8 8h-1v-16h1m0 1v14c3.878 0 7-3.122 7-7s-3.122-7-7-7" color="#eff0f1" fill="#eae6d8"/>
 </g>
</svg>
