<?xml version="1.0" encoding="UTF-8"?>
<svg version="1.1" viewBox="0 0 24 24" xmlns="http://www.w3.org/2000/svg" xmlns:cc="http://creativecommons.org/ns#" xmlns:dc="http://purl.org/dc/elements/1.1/" xmlns:rdf="http://www.w3.org/1999/02/22-rdf-syntax-ns#">
 <metadata>
  <rdf:RDF>
   <cc:Work rdf:about="">
    <dc:format>image/svg+xml</dc:format>
    <dc:type rdf:resource="http://purl.org/dc/dcmitype/StillImage"/>
    <dc:title/>
   </cc:Work>
  </rdf:RDF>
 </metadata>
 <defs>
  <style id="current-color-scheme" type="text/css">.ColorScheme-Text {
        color:#eff0f1;
      }</style>
 </defs>
 <g transform="translate(1,1)" stroke="#a0968c" stroke-width=".4">
  <path class="ColorScheme-Text" d="m7.7012 17.48c-0.016306-1.178-0.028854-1.2549-0.29189-1.789-0.26973-0.54763-0.70706-0.97861-1.2483-1.2301-0.5035-0.23401-0.63251-0.25413-1.7537-0.2735l-1.0059-0.01738v-6.4359l0.9525-6.195e-4c1.0219-6.621e-4 1.2414-0.025886 1.6456-0.18913 0.79537-0.32121 1.3775-0.97496 1.6233-1.823 0.050019-0.17256 0.064537-0.40734 0.07752-1.2537l0.015975-1.0413h6.4385l4.66e-4 0.91673c3.84e-4 0.75392 0.01223 0.97364 0.06671 1.2371 0.18548 0.89715 0.78979 1.6195 1.6432 1.9641 0.40422 0.16324 0.62368 0.18846 1.6456 0.18913l0.9525 6.18e-4v6.4438h-0.811c-1.1896 0-1.5804 0.0691-2.1398 0.37839-0.34951 0.19322-0.83831 0.69981-1.0271 1.0644-0.28073 0.54232-0.30428 0.67841-0.32168 1.8592l-0.01534 1.0413h-6.4329z" color="#eff0f1" fill="#828282"/>
  <path class="ColorScheme-Text" transform="translate(-.99999 -.99999)" d="m8 4v2.5c0 0.831-0.669 1.5-1.5 1.5h-2.5v8h2.5c0.831 0 1.5 0.669 1.5 1.5v2.5h8v-2.5c0-0.831 0.669-1.5 1.5-1.5h2.5v-8h-2.5c-0.831 0-1.5-0.669-1.5-1.5v-2.5h-8m1 1h6v1.5c0 1.385 1.115 2.5 2.5 2.5h1.5v6h-1.5c-1.385 0-2.5 1.115-2.5 2.5v1.5h-6v-1.5c0-1.385-1.115-2.5-2.5-2.5h-1.5v-6h1.5c1.385 0 2.5-1.115 2.5-2.5v-1.5" color="#eff0f1" fill="#eae6d8"/>
 </g>
</svg>
