<?xml version="1.0" encoding="UTF-8"?>
<svg version="1.1" viewBox="0 0 24 24" xmlns="http://www.w3.org/2000/svg" xmlns:cc="http://creativecommons.org/ns#" xmlns:dc="http://purl.org/dc/elements/1.1/" xmlns:rdf="http://www.w3.org/1999/02/22-rdf-syntax-ns#">
 <metadata>
  <rdf:RDF>
   <cc:Work rdf:about="">
    <dc:format>image/svg+xml</dc:format>
    <dc:type rdf:resource="http://purl.org/dc/dcmitype/StillImage"/>
    <dc:title/>
   </cc:Work>
  </rdf:RDF>
 </metadata>
 <defs>
  <style id="current-color-scheme" type="text/css">.ColorScheme-Text {
        color:#eff0f1;
      }</style>
 </defs>
 <g transform="translate(1,1)" stroke="#a0968c" stroke-width=".4">
  <path class="ColorScheme-Text" d="m5.3424 17.368c-0.83318-2.3481-1.7309-5.0187-2.5612-7.3679 2.0068-1.732 4.2077-3.5974 6.2188-5.3245 1.352 0.90332 2.0493 1.5151 3.8023 2.7489-0.49689 1.1791-0.82319 1.9493-1.3619 3.3954-1.5744 0.21696-3.0747 0.4102-4.6846 0.67939 1.2443 1.0893 1.9791 1.9454 3.2443 3.2688-0.096664 0.80226-0.19815 1.9603-0.33375 2.7567-1.6663-0.04034-3.2636-0.0744-4.3238-0.15679z" color="#eff0f1" fill="#828282"/>
  <path class="ColorScheme-Text" d="m9.6184 18.527c2.77e-4 -0.0071 0.1574-0.92365 0.34916-2.0368l0.34866-2.0238-0.24183-0.23416c-0.8446-0.8178-2.6818-2.6235-2.6754-2.6295 0.00419-4e-3 0.91179-0.13389 2.0169-0.28863 1.1051-0.15474 2.0127-0.28467 2.017-0.28872 0.0043-0.0041 0.40461-0.81584 0.88968-1.804 0.48507-0.98812 0.89315-1.8166 0.90683-1.841 0.02409-0.04299 0.05334 0.013656 0.92738 1.796 0.65033 1.3261 0.9123 1.8441 0.93755 1.8538 0.01928 0.0074 0.91039 0.13446 1.9802 0.28242 1.0699 0.14796 1.9665 0.27457 1.9925 0.28136 0.04509 0.01178-0.01892 0.0771-1.3581 1.3864-0.773 0.75573-1.4317 1.4003-1.4639 1.4323l-0.0584 0.05822 0.34637 2.0172c0.19051 1.1094 0.34205 2.0213 0.33676 2.0263-0.0083 0.0079-1.1165-0.56699-3.0723-1.5937-0.28915-0.1518-0.53385-0.27623-0.54378-0.27652-0.0154-4.5e-4 -3.4849 1.8058-3.5963 1.8723-0.021691 0.01294-0.03921 0.01771-0.038929 0.0106z" color="#eff0f1" fill="#828282"/>
  <path class="ColorScheme-Text" d="m9 4-7 6 3 8 4.3729 0.02542-0.3125 2 4.3125-2.4062 4.3125 2.4062-0.8125-5.0625 3.5-3.5938-4.8438-0.75-2.1562-4.5938-0.37288 0.74788zm-0.03125 0.97458 3.6555 2.5803-1.4077 3.0643-4.8437 0.75 3.5 3.5938-0.34375 2.1875-4.0291-0.02542-2.4375-6.9688zm4.4041 2.8008 1.625 3.4688 3.625 0.53125-2.625 2.6875 0.625 3.8125-3.25-1.7812-3.25 1.7812 0.625-3.8125-2.625-2.6875 3.625-0.53125z" color="#eff0f1" fill="#eae6d8"/>
 </g>
</svg>
