<?xml version="1.0" encoding="UTF-8"?>
<svg version="1.1" viewBox="0 0 24 24" xmlns="http://www.w3.org/2000/svg" xmlns:cc="http://creativecommons.org/ns#" xmlns:dc="http://purl.org/dc/elements/1.1/" xmlns:rdf="http://www.w3.org/1999/02/22-rdf-syntax-ns#">
 <metadata>
  <rdf:RDF>
   <cc:Work rdf:about="">
    <dc:format>image/svg+xml</dc:format>
    <dc:type rdf:resource="http://purl.org/dc/dcmitype/StillImage"/>
    <dc:title/>
   </cc:Work>
  </rdf:RDF>
 </metadata>
 <defs>
  <style id="current-color-scheme" type="text/css">.ColorScheme-Text {
        color:#eff0f1;
      }</style>
 </defs>
 <g transform="translate(1,1)" stroke="#a0968c" stroke-width=".4">
  <path class="ColorScheme-Text" d="m9.9497 18.246c-1.9544-0.36915-3.8602-1.5895-4.9753-3.1858-1.1996-1.7173-1.5967-3.9591-1.0571-5.9666 0.40593-1.51 1.5431-3.1395 2.8179-4.038 1.214-0.85564 3.0948-1.5274 4.2764-1.5274h0.42647v14.869l-0.39463-0.0094c-0.21704-0.0051-0.70927-0.06881-1.0938-0.14144z" color="#eff0f1" fill="#828282"/>
  <path class="ColorScheme-Text" transform="translate(-.99999 -.99999)" d="m12 4c-4.432 0-8 3.568-8 8s3.568 8 8 8h1v-16h-1m0 1v14c-3.878 0-7-3.122-7-7s3.122-7 7-7" color="#eff0f1" fill="#eae6d8"/>
 </g>
</svg>
