<?xml version="1.0" encoding="UTF-8"?>
<svg version="1.1" viewBox="0 0 24 24" xmlns="http://www.w3.org/2000/svg" xmlns:cc="http://creativecommons.org/ns#" xmlns:dc="http://purl.org/dc/elements/1.1/" xmlns:rdf="http://www.w3.org/1999/02/22-rdf-syntax-ns#">
 <metadata>
  <rdf:RDF>
   <cc:Work rdf:about="">
    <dc:format>image/svg+xml</dc:format>
    <dc:type rdf:resource="http://purl.org/dc/dcmitype/StillImage"/>
    <dc:title/>
   </cc:Work>
  </rdf:RDF>
 </metadata>
 <defs>
  <style id="current-color-scheme" type="text/css">.ColorScheme-Text {
        color:#eff0f1;
      }
      .ColorScheme-Highlight {
        color:#3daee9;
      }</style>
 </defs>
 <path class="ColorScheme-Text" d="m4 4v5h1v-4h2v4h1v-4h2v4h1v-4h2v4h1v-4h2v4h1v-4h2v4h1v-5h-15zm11 6 2.5 5 2.5-5zm-11 5v5h16v-5h-1v4h-2v-4h-1v4h-2v-4h-1v4h-2v-4h-1v4h-2v-4h-1v4h-2v-4z" color="#eff0f1" fill="#eae6d8" stroke="#a0968c" stroke-width=".4"/>
 <path class="ColorScheme-Highlight" d="m4 9v1h4.2812l-3.2812 3.2812v0.01172l-0.70703 0.70703h-0.29297v1h10v-1h-0.28125l0.28125-0.28125v-1.4375l-1.7188 1.7188h-2.5625l4-4h0.28125v-1h-10m5.7188 1h2.5625l-4 4h-2.5625l4-4" color="#3daee9" fill="#0062ff"/>
</svg>
