<?xml version="1.0" encoding="UTF-8"?>
<svg version="1.1" viewBox="0 0 24 24" xmlns="http://www.w3.org/2000/svg" xmlns:cc="http://creativecommons.org/ns#" xmlns:dc="http://purl.org/dc/elements/1.1/" xmlns:rdf="http://www.w3.org/1999/02/22-rdf-syntax-ns#">
 <metadata>
  <rdf:RDF>
   <cc:Work rdf:about="">
    <dc:format>image/svg+xml</dc:format>
    <dc:type rdf:resource="http://purl.org/dc/dcmitype/StillImage"/>
    <dc:title/>
   </cc:Work>
  </rdf:RDF>
 </metadata>
 <style id="current-color-scheme" type="text/css">.ColorScheme-Text {
        color:#eff0f1;
      }</style>
 <g class="ColorScheme-Text" transform="translate(1,1)" color="#eff0f1" stroke="#a0968c" stroke-width=".4">
  <path d="m6 14c0 2.77 2.23 5 5 5s5-2.23 5-5z" fill="#003fff" fill-rule="evenodd"/>
  <path d="m7.482 10c-0.34 0.586-0.65 1.148-0.886 1.676a4.958 4.958 0 0 0-0.596 2.324h10c0-0.845-0.228-1.627-0.596-2.324a18.518 18.518 0 0 0-0.886-1.676z" fill="#009bff" fill-rule="evenodd"/>
  <path d="m11 3c-0.973 3.405-3.354 6.332-4.404 8.676a4.958 4.958 0 0 0-0.596 2.324c0 2.77 2.23 5 5 5s5-2.23 5-5c0-0.845-0.228-1.627-0.596-2.324-1.05-2.344-3.431-5.271-4.404-8.676zm0 2.393c1.194 2.668 2.747 5.027 3.492 6.691l0.012 0.03 0.016 0.029a3.94 3.94 0 0 1 0.48 1.857c0 2.233-1.767 4-4 4a3.97 3.97 0 0 1-4-4c0-0.665 0.177-1.283 0.48-1.857l0.016-0.03 0.012-0.029c0.745-1.664 2.298-4.023 3.492-6.691z" fill="#eae6d8"/>
 </g>
</svg>
