<?xml version="1.0" encoding="UTF-8"?>
<svg version="1.1" viewBox="0 0 16 16" xmlns="http://www.w3.org/2000/svg" xmlns:cc="http://creativecommons.org/ns#" xmlns:dc="http://purl.org/dc/elements/1.1/" xmlns:rdf="http://www.w3.org/1999/02/22-rdf-syntax-ns#">
 <metadata>
  <rdf:RDF>
   <cc:Work rdf:about="">
    <dc:format>image/svg+xml</dc:format>
    <dc:type rdf:resource="http://purl.org/dc/dcmitype/StillImage"/>
    <dc:title/>
   </cc:Work>
  </rdf:RDF>
 </metadata>
 <defs>
  <style id="current-color-scheme" type="text/css">.ColorScheme-Text {
        color:#eff0f1;
      }</style>
 </defs>
 <path class="ColorScheme-Text" d="m2 2v11h3v1h2v-1h-1v-8h6v1h1v-2h-1v-2h-10zm1 1h8v1h-6v8h-2v-9zm8 4a2 2 0 0 0-2 2v1h1v-1a1 1 0 0 1 1-1 1 1 0 0 1 1 1v2h-4v3h6v-3h-1v-2a2 2 0 0 0-2-2zm-2 5h4v1h-4v-1z" fill="#eae6d8" stroke="#a0968c" stroke-width=".4"/>
</svg>
