<?xml version="1.0" encoding="UTF-8"?>
<svg version="1.1" viewBox="0 0 24 24" xmlns="http://www.w3.org/2000/svg" xmlns:cc="http://creativecommons.org/ns#" xmlns:dc="http://purl.org/dc/elements/1.1/" xmlns:rdf="http://www.w3.org/1999/02/22-rdf-syntax-ns#">
 <metadata>
  <rdf:RDF>
   <cc:Work rdf:about="">
    <dc:format>image/svg+xml</dc:format>
    <dc:type rdf:resource="http://purl.org/dc/dcmitype/StillImage"/>
    <dc:title/>
   </cc:Work>
  </rdf:RDF>
 </metadata>
 <defs>
  <style id="current-color-scheme" type="text/css">.ColorScheme-Text {
        color:#eff0f1;
      }</style>
 </defs>
 <g fill="#eae6d8">
  <path d="m4 4v4h1v-3h3v-1h-3z" fill="#969696"/>
  <path d="m16 4v1h3v3h1v-4z" fill="#969696"/>
  <path d="m6 6v5h5v-5z" stroke="#a0968c" stroke-width=".4"/>
  <path d="m13 6v5h5v-5z" stroke="#a0968c" stroke-width=".4"/>
 </g>
 <path d="m7 7h3v3h-3z" fill="#0096ff"/>
 <path d="m14 7h3v3h-3z" fill="#0096ff"/>
 <path d="m6 13v5h5v-5z" fill="#eae6d8" stroke="#a0968c" stroke-width=".4"/>
 <path d="m7 14h3v3h-3z" fill="#0096ff"/>
 <path d="m4 16v4h4v-1h-3v-3z" fill="#969696"/>
 <path d="M 14.99023,14 14,14.99023 16.00976,17 14,19.00977 14.99023,20 17,17.99023 19.00976,20 20,19.00977 17.99023,17 20,14.99023 19.00976,14 17,16.00977 14.99023,14" fill="#b40000"/>
</svg>
