<?xml version="1.0" encoding="UTF-8"?>
<svg version="1.1" viewBox="0 0 24 24" xmlns="http://www.w3.org/2000/svg" xmlns:cc="http://creativecommons.org/ns#" xmlns:dc="http://purl.org/dc/elements/1.1/" xmlns:rdf="http://www.w3.org/1999/02/22-rdf-syntax-ns#">
 <metadata>
  <rdf:RDF>
   <cc:Work rdf:about="">
    <dc:format>image/svg+xml</dc:format>
    <dc:type rdf:resource="http://purl.org/dc/dcmitype/StillImage"/>
    <dc:title/>
   </cc:Work>
  </rdf:RDF>
 </metadata>
 <defs>
  <style id="current-color-scheme" type="text/css">.ColorScheme-Text {
        color:#eff0f1;
      }</style>
 </defs>
 <g transform="translate(1,1)" fill="#eae6d8" stroke="#a0968c" stroke-width=".4">
  <path class="ColorScheme-Text" d="m11 3a8 8 0 0 0-0.80664 0.041016c-2.2153 0.21989-4.1543 1.3395-5.4609 2.9863-0.16422 0.20699-0.31757 0.42151-0.46094 0.64453a8 8 0 0 0-0.013672 0.023437c-0.13912 0.21805-0.26885 0.44194-0.38672 0.67383a8 8 0 0 0-0.00195 0.00586c-0.11259 0.22194-0.21472 0.45019-0.30664 0.68359a8 8 0 0 0-0.056641 0.1543c-0.069659 0.1882-0.13381 0.3776-0.18945 0.57227a8 8 0 0 0-0.0625 0.23633c-0.044807 0.17713-0.086307 0.35542-0.11914 0.53711a8 8 0 0 0-0.042969 0.28125c-0.022594 0.15647-0.043172 0.31333-0.05664 0.47266a8 8 0 0 0-0.035156 0.6875 8 8 0 0 0 0.041016 0.80664c0.21989 2.2153 1.3395 4.1543 2.9863 5.4609 0.20699 0.16422 0.42151 0.31757 0.64453 0.46094a8 8 0 0 0 0.023437 0.01367c0.21804 0.13912 0.44194 0.26885 0.67383 0.38672h0.00195a8 8 0 0 0 0.00391 2e-3c0.22194 0.1126 0.45019 0.21472 0.68359 0.30664a8 8 0 0 0 0.1543 0.05664c0.1882 0.06966 0.3776 0.13381 0.57227 0.18945a8 8 0 0 0 0.23633 0.0625c0.17713 0.04481 0.35542 0.08631 0.53711 0.11914a8 8 0 0 0 0.28125 0.04297c0.15647 0.02259 0.31333 0.04317 0.47266 0.05664a8 8 0 0 0 0.6875 0.03511 8 8 0 0 0 1-0.07031v-1.0078a7 7 0 0 1-1 0.07813c-0.23644 0-0.46893-0.01248-0.69922-0.03516a7 7 0 0 1-0.62305-0.09375 7 7 0 0 1-0.068359-0.0098h-0.00195a7 7 0 0 1-4.8418-3.6796 7 7 0 0 1-0.011719-0.02149 7 7 0 0 1-0.26758-0.59961c-0.011075-0.0283-0.020533-0.05746-0.03125-0.08594a7 7 0 0 1-0.18164-0.54687c-0.017947-0.06313-0.032614-0.12755-0.048828-0.19141a7 7 0 0 1-0.10352-0.45703c-0.017241-0.09394-0.029494-0.18992-0.042969-0.28516a7 7 0 0 1-0.048828-0.4043c-0.016195-0.19513-0.029297-0.39039-0.029297-0.58984 0-0.23644 0.012481-0.46893 0.035156-0.69922a7 7 0 0 1 0.09375-0.62305 7 7 0 0 1 0.00977-0.070312 7 7 0 0 1 3.6797-4.8418 7 7 0 0 1 0.021484-0.011719 7 7 0 0 1 0.59961-0.26758c0.0283-0.011075 0.057458-0.020533 0.085937-0.03125a7 7 0 0 1 0.54688-0.18164c0.063129-0.017947 0.12755-0.032614 0.19141-0.048828a7 7 0 0 1 0.45703-0.10352c0.09394-0.017241 0.18992-0.029494 0.28516-0.042969a7 7 0 0 1 0.4043-0.048828c0.19513-0.016195 0.39039-0.029297 0.58984-0.029297a7 7 0 0 1 0.69922 0.035156 7 7 0 0 1 0.62305 0.09375 7 7 0 0 1 0.06836 0.00977h2e-3a7 7 0 0 1 4.8418 3.6797 7 7 0 0 1 0.0039 0.00586c0.0026 0.00519 0.0052 0.010425 0.0078 0.015625a7 7 0 0 1 0.26758 0.59961c0.01108 0.0283 0.02053 0.057458 0.03125 0.085937a7 7 0 0 1 0.18164 0.54688c0.01795 0.063129 0.03261 0.12755 0.04883 0.19141a7 7 0 0 1 0.10352 0.45703c0.01724 0.09394 0.02949 0.18992 0.04297 0.28516a7 7 0 0 1 0.04883 0.4043c0.01616 0.19513 0.02926 0.39039 0.02926 0.58984a7 7 0 0 1-0.08008 1h1.0078a8 8 0 0 0 0.07227-1c0-0.26973-0.01324-0.53611-0.03906-0.79883a8 8 0 0 0-2e-3 -0.0078c-0.21985-2.2153-1.3394-4.1543-2.9863-5.461-0.20699-0.16422-0.42151-0.31757-0.64453-0.46094-2e-3 -0.00127-0.0039-0.00264-0.0059-0.00391a8 8 0 0 0-0.01758-0.00977c-0.218-0.13911-0.44189-0.26885-0.67379-0.38671h-2e-3a8 8 0 0 0-0.0039-0.00195c-0.22194-0.11259-0.45019-0.21472-0.68359-0.30664a8 8 0 0 0-0.1543-0.056641c-0.1882-0.069659-0.3776-0.13381-0.57226-0.18945a8 8 0 0 0-0.23633-0.0625c-0.17713-0.044807-0.35542-0.086307-0.53711-0.11914a8 8 0 0 0-0.28125-0.042969c-0.15647-0.022594-0.31333-0.043172-0.47266-0.05664a8 8 0 0 0-0.6875-0.035156zm0 2c-3.324 0-6 2.676-6 6h3c0-1.662 1.338-3 3-3zm0 4c-1.108 0-2 0.892-2 2s0.892 2 2 2v-1c-0.554 0-1-0.446-1-1s0.446-1 1-1 1 0.446 1 1h1c0-1.108-0.892-2-2-2zm3 4v1h-1v1h1v2h-1v1h1v1h1v-1h2v1h1v-1h1v-1h-1v-2h1v-1h-1v-1h-1v1h-2v-1zm1 2h2v2h-2z" color="#eff0f1" fill="#eae6d8" stroke="#a0968c" stroke-width=".4"/>
 </g>
</svg>
