<?xml version="1.0" encoding="UTF-8"?>
<svg version="1.1" viewBox="0 0 24 24" xmlns="http://www.w3.org/2000/svg" xmlns:cc="http://creativecommons.org/ns#" xmlns:dc="http://purl.org/dc/elements/1.1/" xmlns:rdf="http://www.w3.org/1999/02/22-rdf-syntax-ns#">
 <metadata>
  <rdf:RDF>
   <cc:Work rdf:about="">
    <dc:format>image/svg+xml</dc:format>
    <dc:type rdf:resource="http://purl.org/dc/dcmitype/StillImage"/>
    <dc:title/>
   </cc:Work>
  </rdf:RDF>
 </metadata>
 <defs>
  <style id="current-color-scheme" type="text/css">.ColorScheme-Text {
        color:#eff0f1;
      }</style>
 </defs>
 <g transform="translate(1,1)" fill="#eae6d8" stroke="#a0968c" stroke-width=".4">
  <path class="ColorScheme-Text" transform="matrix(.99436 0 0 .97415 -322.66 -520.17)" d="m338.87 540.29q0 0.42846-0.0769 0.81298-0.0769 0.38453-0.26367 0.7251-0.17579 0.32959-0.35157 0.60425-0.17578 0.26367-0.50537 0.54932-0.3186 0.27465-0.54931 0.46142-0.23072 0.18677-0.65918 0.43946-0.41749 0.25268-0.65918 0.38452-0.2417 0.13183-0.71412 0.38452l4.4055 4.779q1.0107-1.0986 1.8457-2.5928l1.2524 0.82397q-0.97779 1.7029-2.0874 2.8564l1.7468 1.9006-1.2744 1.0547-1.6809-1.8677q-2.2082 1.6919-4.6362 1.6919-1.0547 0-2.0215-0.32959-0.95581-0.34058-1.637-0.90088t-1.0876-1.3074q-0.3955-0.74707-0.3955-1.5491 0-0.74707 0.17578-1.3953 0.18676-0.65918 0.47241-1.1316 0.29663-0.4834 0.73608-0.91187 0.45044-0.43945 0.8899-0.73608 0.43945-0.30762 1.0107-0.62622l-0.29663-0.32959q-1.615-1.7798-1.615-3.5925 0-1.5381 1.1646-2.4829 1.1755-0.95581 3.0212-0.95581 1.7248 0 2.7576 0.83496 1.0327 0.83496 1.0327 2.406m-4.6692 3.3948q0.58228-0.29663 0.94483-0.50537 0.36254-0.21973 0.802-0.53833 0.45044-0.32959 0.69214-0.63721 0.25268-0.30761 0.41748-0.73608 0.17578-0.43945 0.17578-0.92285 0-0.9668-0.53833-1.4722-0.53833-0.51636-1.593-0.51636-1.0767 0-1.8347 0.54932-0.75805 0.54932-0.75805 1.4612 0 1.4832 1.4502 3.0542l0.2417 0.26367m4.1089 6.8335-4.5923-5.0977q-1.1646 0.70313-1.8018 1.5491-0.63721 0.83496-0.63721 2.0654 0 1.1755 0.98877 1.9995 0.98877 0.81299 2.4609 0.81299 1.8127 0 3.5815-1.3293" color="#eff0f1" fill="#eae6d8" stroke="#a0968c" stroke-width=".40642"/>
 </g>
</svg>
