<?xml version="1.0" encoding="UTF-8"?>
<svg version="1.1" viewBox="0 0 24 24" xmlns="http://www.w3.org/2000/svg" xmlns:cc="http://creativecommons.org/ns#" xmlns:dc="http://purl.org/dc/elements/1.1/" xmlns:rdf="http://www.w3.org/1999/02/22-rdf-syntax-ns#">
 <metadata>
  <rdf:RDF>
   <cc:Work rdf:about="">
    <dc:format>image/svg+xml</dc:format>
    <dc:type rdf:resource="http://purl.org/dc/dcmitype/StillImage"/>
    <dc:title/>
   </cc:Work>
  </rdf:RDF>
 </metadata>
 <defs>
  <style id="current-color-scheme" type="text/css">.ColorScheme-Text {
        color:#eff0f1;
      }</style>
 </defs>
 <g transform="translate(1,1)" fill="#eae6d8" stroke="#a0968c" stroke-width=".4">
  <path class="ColorScheme-Text" transform="translate(-544.57,-742.93)" d="m547.57 746.43v15h16v-15h-16m1 1h1v1h-1v-1m2 0h10v5.5h-10v-5.5m11 0h1v1h-1v-1m-13 3h1v1h-1v-1m13 0h1v1h-1v-1m-13 3h1v1h-1v-1m13 0h1v1h-1v-1m-11 1.5h10v5.5h-10v-5.5m-2 1.5h1v1h-1v-1m13 0h1v1h-1v-1m-13 3h1v1h-1v-1m13 0h1v1h-1v-1" color="#eff0f1" fill="#eae6d8" stroke="#a0968c" stroke-width=".4"/>
 </g>
</svg>
