<?xml version="1.0" encoding="UTF-8"?>
<svg version="1.1" viewBox="0 0 24 24" xmlns="http://www.w3.org/2000/svg" xmlns:cc="http://creativecommons.org/ns#" xmlns:dc="http://purl.org/dc/elements/1.1/" xmlns:rdf="http://www.w3.org/1999/02/22-rdf-syntax-ns#">
 <metadata>
  <rdf:RDF>
   <cc:Work rdf:about="">
    <dc:format>image/svg+xml</dc:format>
    <dc:type rdf:resource="http://purl.org/dc/dcmitype/StillImage"/>
    <dc:title/>
   </cc:Work>
  </rdf:RDF>
 </metadata>
 <defs>
  <style id="current-color-scheme" type="text/css">.ColorScheme-Text {
        color:#eff0f1;
      }</style>
 </defs>
 <g transform="translate(1,1)" fill="#eae6d8" stroke="#a0968c" stroke-width=".4">
  <path class="ColorScheme-Text" d="m11 3c-4.4183 0-8 3.5817-8 8 4.7e-6 4.4183 3.5817 8 8 8s8-3.5817 8-8c-5e-6 -4.4183-3.5817-8-8-8zm0 1c1.6602 4.288e-4 3.2662 0.59091 4.5312 1.666v0.00195c0.01246 0.019396 0.01803 0.030627 0.03125 0.050781l-4.5625 4.5625-4.5625-4.5625c0.00817-0.013106 0.01146-0.020225 0.019531-0.033203 1.2654-1.0848 2.8763-1.6825 4.543-1.6855zm-5.2812 2.4375 4.5625 4.5625-4.5625 4.5625c-0.1016-0.1217-0.16748-0.18705-0.26172-0.29688-0.94272-1.2223-1.455-2.722-1.457-4.2656 8.918e-4 -1.6595 0.59134-3.2647 1.666-4.5293 0.021089-0.01393 0.031104-0.01876 0.052734-0.033203zm10.562 0c0.0092 0.0038 0.01426 0.00405 0.02344 0.00781 1.0909 1.267 1.6923 2.8827 1.6953 4.5547-4.5e-4 1.6664-0.59535 3.2779-1.6777 4.5449-0.01502 0.0077-0.02512 9e-3 -0.04102 0.01758l-4.5625-4.5625zm-5.2812 5.2812 4.5625 4.5625c-0.0048 0.01015-7e-3 0.01531-0.01172 0.02539-1.2663 1.0893-2.8804 1.69-4.5508 1.6934-1.6731-0.0015-3.2903-0.60227-4.5586-1.6934-0.00173-0.01032-0.00215-0.01499-0.00391-0.02539z" color="#eff0f1" fill="#eae6d8" stroke="#a0968c" stroke-width=".4"/>
 </g>
</svg>
