<?xml version="1.0" encoding="UTF-8"?>
<svg version="1.1" viewBox="0 0 24 24" xmlns="http://www.w3.org/2000/svg" xmlns:cc="http://creativecommons.org/ns#" xmlns:dc="http://purl.org/dc/elements/1.1/" xmlns:rdf="http://www.w3.org/1999/02/22-rdf-syntax-ns#">
 <metadata>
  <rdf:RDF>
   <cc:Work rdf:about="">
    <dc:format>image/svg+xml</dc:format>
    <dc:type rdf:resource="http://purl.org/dc/dcmitype/StillImage"/>
    <dc:title/>
   </cc:Work>
  </rdf:RDF>
 </metadata>
 <style id="current-color-scheme" type="text/css">.ColorScheme-Text {
            color:#eff0f1;
        }
        .ColorScheme-NegativeText {
            color:#da4453;
        }</style>
 <g transform="translate(1,1)">
  <path class="ColorScheme-Text" d="m7.9102 3-4.9102 14h1.6582l1.625-4.4375h5.4336l0.65039 1.7754c0.25714-0.56511 0.64231-1.0626 1.125-1.4531l-3.4024-9.8848h-2.1797zm1.1055 1.9375 2.1797 6.3438h-4.3906z" color="#eff0f1" fill="#eae6d8" stroke="#a0968c" stroke-width=".6"/>
  <path class="ColorScheme-NegativeText" d="m19 16c0-1.662-1.338-3-3-3s-3 1.338-3 3 1.338 3 3 3 3-1.338 3-3zm-1 0c0 0.37162-0.10606 0.7142-0.28125 1.0117l-2.7305-2.7305c0.29752-0.17518 0.64009-0.28125 1.0117-0.28125 1.108 0 2 0.892 2 2zm-0.98828 1.7188c-0.29752 0.17518-0.64009 0.28125-1.0117 0.28125-1.108 0-2-0.892-2-2 0-0.37162 0.10606-0.7142 0.28125-1.0117z" color="#da4453" fill="#b40000" stroke="#640000" stroke-width=".4"/>
 </g>
</svg>
