<?xml version="1.0" encoding="UTF-8"?>
<svg version="1.1" viewBox="0 0 16 16" xmlns="http://www.w3.org/2000/svg" xmlns:cc="http://creativecommons.org/ns#" xmlns:dc="http://purl.org/dc/elements/1.1/" xmlns:rdf="http://www.w3.org/1999/02/22-rdf-syntax-ns#">
 <metadata>
  <rdf:RDF>
   <cc:Work rdf:about="">
    <dc:format>image/svg+xml</dc:format>
    <dc:type rdf:resource="http://purl.org/dc/dcmitype/StillImage"/>
    <dc:title/>
   </cc:Work>
  </rdf:RDF>
 </metadata>
 <defs>
  <style id="current-color-scheme" type="text/css">.ColorScheme-Text {
        color:#eff0f1;
      }
      .ColorScheme-Highlight {
        color:#3daee9;
      }</style>
 </defs>
 <path class="ColorScheme-Text" d="m5 2c-0.552 0-1 0.448-1 1v2h-2v3h1v-2h10v2h1v-3h-2v-2c0-0.552-0.448-1-1-1h-6zm0 1h6v2h-6v-2zm-0.99609 6a1 1 0 0 0-1 1 1 1 0 0 0 1 1 1 1 0 0 0 1-1 1 1 0 0 0-1-1zm-1.3203 3a2 2 0 0 0-0.67969 1.5v0.5h4v-0.5a2 2 0 0 0-0.67969-1.5h-2.6406z" fill="#eae6d8" stroke="#a0968c" stroke-width=".4"/>
 <path d="m13.34 9-3.148 3.609-1.524-1.552-0.663 0.675 2.227 2.268 3.773-4.323z" fill="#009600" stroke="#006400" stroke-width=".4"/>
</svg>
