<?xml version="1.0" encoding="UTF-8"?>
<svg version="1.1" viewBox="0 0 24 24" xmlns="http://www.w3.org/2000/svg" xmlns:cc="http://creativecommons.org/ns#" xmlns:dc="http://purl.org/dc/elements/1.1/" xmlns:rdf="http://www.w3.org/1999/02/22-rdf-syntax-ns#">
 <metadata>
  <rdf:RDF>
   <cc:Work rdf:about="">
    <dc:format>image/svg+xml</dc:format>
    <dc:type rdf:resource="http://purl.org/dc/dcmitype/StillImage"/>
    <dc:title/>
   </cc:Work>
  </rdf:RDF>
 </metadata>
 <style id="current-color-scheme" type="text/css">.ColorScheme-Text {
            color:#eff0f1;
        }</style>
 <g transform="translate(1,1)" fill="#eae6d8" stroke="#a0968c" stroke-width=".4">
  <g class="ColorScheme-Text" color="#eff0f1" fill="#eae6d8" stroke="#a0968c" stroke-width=".4">
   <path d="m6 3v7c0 2.77 2.23 5 5 5s5-2.23 5-5v-7h-2v8c0 1.108-0.892 2-2 2s-2-0.892-2-2v-8z"/>
   <path d="m6.848 16c-0.858-8e-3 -1.41 0.717-1.932 1.291-0.271 0.248-0.517 0.654-0.916 0.709v1c0.9-0.027 1.444-0.827 2.006-1.426 0.238-0.227 0.475-0.559 0.832-0.572 0.475 0.149 0.756 0.607 1.092 0.945 0.49 0.561 1.134 1.196 1.948 1.024 1.017-0.26 1.458-1.311 2.263-1.879 0.275-0.223 0.594 0.022 0.795 0.221 0.637 0.595 1.11 1.446 2.016 1.662 0.81 0.158 1.434-0.48 1.923-1.031 0.322-0.341 0.606-0.77 1.061-0.936 0.058 0 0.064-1e-3 0.064-0.466v-0.542c-0.91 0.028-1.455 0.844-2.026 1.447-0.231 0.22-0.465 0.542-0.812 0.551-0.475-0.149-0.757-0.605-1.092-0.945-0.49-0.562-1.134-1.196-1.948-1.024-1.017 0.26-1.46 1.311-2.263 1.879-0.275 0.223-0.594-0.022-0.795-0.221-0.636-0.594-1.111-1.446-2.016-1.663l-0.139-0.02z" fill-rule="evenodd"/>
  </g>
 </g>
</svg>
