<?xml version="1.0" encoding="UTF-8"?>
<svg version="1.1" viewBox="0 0 24 24" xmlns="http://www.w3.org/2000/svg" xmlns:cc="http://creativecommons.org/ns#" xmlns:dc="http://purl.org/dc/elements/1.1/" xmlns:rdf="http://www.w3.org/1999/02/22-rdf-syntax-ns#">
 <metadata>
  <rdf:RDF>
   <cc:Work rdf:about="">
    <dc:format>image/svg+xml</dc:format>
    <dc:type rdf:resource="http://purl.org/dc/dcmitype/StillImage"/>
    <dc:title/>
   </cc:Work>
  </rdf:RDF>
 </metadata>
 <defs>
  <style id="current-color-scheme" type="text/css">.ColorScheme-Text {
        color:#eff0f1;
      }
      .ColorScheme-Highlight {
        color:#3daee9;
      }</style>
 </defs>
 <g transform="translate(1,1)">
  <g transform="translate(-421.71,-525.79)">
   <path class="ColorScheme-Text" transform="translate(421.71,525.79)" d="m4.8281 7-4.1738 12h1.0078l1.4961-4h5.207l1.4902 4h1.1445l-4.2305-12zm7.1719 0v12h6a3.5 3.5 0 0 0 3.5-3.5 3.5 3.5 0 0 0-2.4336-3.3301 3 3 0 0 0 0.93359-2.1699 3 3 0 0 0-3-3h-4zm1 1h4a2 2 0 0 1 2 2 2 2 0 0 1-2 2h-4zm-7.2324 0.029297 2.2246 5.9707h-4.459zm7.2324 4.9707h5a2.5 2.5 0 0 1 2.5 2.5 2.5 2.5 0 0 1-2.5 2.5h-5z" color="#eff0f1" fill="#eae6d8" stroke="#a0968c" stroke-width=".4"/>
   <path class="ColorScheme-Highlight" d="m434.71 531.79 3-4 3 4z" color="#3daee9" fill="#009600" stroke="#006400" stroke-width=".6"/>
  </g>
 </g>
</svg>
