<?xml version="1.0" encoding="UTF-8"?>
<svg version="1.1" viewBox="0 0 24 24" xmlns="http://www.w3.org/2000/svg" xmlns:cc="http://creativecommons.org/ns#" xmlns:dc="http://purl.org/dc/elements/1.1/" xmlns:rdf="http://www.w3.org/1999/02/22-rdf-syntax-ns#">
 <metadata>
  <rdf:RDF>
   <cc:Work rdf:about="">
    <dc:format>image/svg+xml</dc:format>
    <dc:type rdf:resource="http://purl.org/dc/dcmitype/StillImage"/>
    <dc:title/>
   </cc:Work>
  </rdf:RDF>
 </metadata>
 <defs>
  <style id="current-color-scheme" type="text/css">.ColorScheme-Text {
        color:#eff0f1;
      }
      .ColorScheme-Highlight {
        color:#3daee9;
      }</style>
 </defs>
 <g transform="translate(1,1)">
  <g transform="translate(-421.71,-525.79)">
   <path class="ColorScheme-Text" transform="translate(421.71,525.79)" d="m5.0352 7-4.0352 12h0.97461l1.4453-4h5.0332l1.4414 4h1.1055l-4.0898-12zm6.9648 0v12h1v-1.3613a4 4 0 0 0 3 1.3613 4 4 0 0 0 4-4 4 4 0 0 0-4-4 4 4 0 0 0-3 1.3613v-5.3613zm-6.0566 1.0293 2.1484 5.9707h-4.3086zm10.057 3.9707a3 3 0 0 1 3 3 3 3 0 0 1-3 3 3 3 0 0 1-3-3 3 3 0 0 1 3-3z" color="#eff0f1" fill="#eae6d8" stroke="#a0968c" stroke-width=".4"/>
   <path class="ColorScheme-Highlight" d="m424.71 531.79 3-4 3 4z" color="#3daee9" fill="currentColor"/>
  </g>
 </g>
</svg>
