<?xml version="1.0" encoding="UTF-8"?>
<svg version="1.1" viewBox="0 0 24 24" xmlns="http://www.w3.org/2000/svg" xmlns:cc="http://creativecommons.org/ns#" xmlns:dc="http://purl.org/dc/elements/1.1/" xmlns:rdf="http://www.w3.org/1999/02/22-rdf-syntax-ns#">
 <metadata>
  <rdf:RDF>
   <cc:Work rdf:about="">
    <dc:format>image/svg+xml</dc:format>
    <dc:type rdf:resource="http://purl.org/dc/dcmitype/StillImage"/>
    <dc:title/>
   </cc:Work>
  </rdf:RDF>
 </metadata>
 <defs>
  <style id="current-color-scheme" type="text/css">.ColorScheme-Text {
        color:#eff0f1;
      }</style>
 </defs>
 <g transform="translate(1,1)">
  <path class="ColorScheme-Text" d="m3 2v17h17v-17h-9zm1 1h7v7h-7zm8 0h7v7h-7zm-8 8h7v7h-7zm8 0h7v7h-7z" color="#eff0f1" fill="#eae6d8" stroke="#a0968c" stroke-width=".4"/>
  <path class="ColorScheme-Text" d="m4 3v7h7v-7zm8 0v6.293l6.293-6.293zm7 0.70703-6.293 6.293h6.293zm-15 7.293v6.293l6.293-6.293zm8 0v7h7v-7zm-1 0.70703-6.293 6.293h6.293z" color="#eff0f1" fill="#646464" fill-opacity=".50196"/>
  <path class="ColorScheme-Text" d="M 19.293,2 3,18.293 v 0.70703 h 0.70703 l 16.293,-16.293 V 2 Z" color="#eff0f1" fill="#009600" stroke="#006400" stroke-width=".4"/>
 </g>
</svg>
