<?xml version="1.0" encoding="UTF-8"?>
<svg version="1.1" viewBox="0 0 24 24" xmlns="http://www.w3.org/2000/svg" xmlns:cc="http://creativecommons.org/ns#" xmlns:dc="http://purl.org/dc/elements/1.1/" xmlns:rdf="http://www.w3.org/1999/02/22-rdf-syntax-ns#">
 <metadata>
  <rdf:RDF>
   <cc:Work rdf:about="">
    <dc:format>image/svg+xml</dc:format>
    <dc:type rdf:resource="http://purl.org/dc/dcmitype/StillImage"/>
    <dc:title/>
   </cc:Work>
  </rdf:RDF>
 </metadata>
 <defs>
  <style id="current-color-scheme" type="text/css">.ColorScheme-Text {
        color:#eff0f1;
      }</style>
 </defs>
 <g transform="translate(1,1)">
  <path class="ColorScheme-Text" d="m6.9434 3-3.9434 6.8281v0.17188h1.0566l1.1543-2h4.5781l1.1543 2h1.0566v-0.17188l-3.9434-6.8281h-0.056641-1.0566zm4.0566 0v1h5v-1h-5zm6 0v4l2-2-2-2zm-9.5 1.0371 1.7109 2.9629h-3.4219l1.7109-2.9629zm4.5 1.9629v1h4v-1h-4zm1 3v1h3v-1h-3zm4 0v4l2-2-2-2zm-14 3v1h13v-1h-13zm0 3v1h13v-1h-13zm14 0v4l2-2-2-2zm-14 3v1h13v-1h-13z" fill="#eae6d8" stroke="#a0968c" stroke-width=".4"/>
 </g>
</svg>
