<?xml version="1.0" encoding="UTF-8"?>
<svg version="1.1" viewBox="0 0 24 24" xmlns="http://www.w3.org/2000/svg" xmlns:cc="http://creativecommons.org/ns#" xmlns:dc="http://purl.org/dc/elements/1.1/" xmlns:rdf="http://www.w3.org/1999/02/22-rdf-syntax-ns#">
 <metadata>
  <rdf:RDF>
   <cc:Work rdf:about="">
    <dc:format>image/svg+xml</dc:format>
    <dc:type rdf:resource="http://purl.org/dc/dcmitype/StillImage"/>
    <dc:title/>
   </cc:Work>
  </rdf:RDF>
 </metadata>
 <defs>
  <style id="current-color-scheme" type="text/css">.ColorScheme-Text {
        color:#eff0f1;
      }</style>
 </defs>
 <g transform="translate(1,1)">
  <path d="m11.996 3.002-7.3262 7.3262-0.00195-0.0039-1.4141 1.4141 0.00195 0.0039-0.25 0.25h-0.00586v4.0078h4.0078l1.3125-1.3125 0.35547-0.35352 7.3223-7.3301-3.998-4z" color="#eff0f1" fill="#eae6d8" stroke="#a0968c" stroke-width=".4"/>
  <g fill="#4b4a4b">
   <path d="m11.412 4.998 2.5879 2.5898-4.2676 4.2676-2.5879-2.5898z" color="#eff0f1"/>
   <path d="m6.4375 9.9727 2.5879 2.5898-0.70703 0.70703-2.5898-2.5898 0.27344-0.27148z" color="#eff0f1"/>
   <path d="m5.0215 11.387 2.5898 2.5898 0.00391 2e-3 -0.70703 0.70703-0.00391-2e-3 -2.5898-2.5898z" color="#eff0f1"/>
  </g>
  <path d="m3 18v1h16v-1z" color="#eff0f1" fill="#009600" stroke="#006400" stroke-width=".4"/>
 </g>
</svg>
