<?xml version="1.0" encoding="UTF-8"?>
<svg version="1.1" viewBox="0 0 24 24" xmlns="http://www.w3.org/2000/svg" xmlns:cc="http://creativecommons.org/ns#" xmlns:dc="http://purl.org/dc/elements/1.1/" xmlns:rdf="http://www.w3.org/1999/02/22-rdf-syntax-ns#">
 <metadata>
  <rdf:RDF>
   <cc:Work rdf:about="">
    <dc:format>image/svg+xml</dc:format>
    <dc:type rdf:resource="http://purl.org/dc/dcmitype/StillImage"/>
    <dc:title/>
   </cc:Work>
  </rdf:RDF>
 </metadata>
 <defs>
  <style id="current-color-scheme" type="text/css">.ColorScheme-Text {
        color:#eff0f1;
      }</style>
 </defs>
 <g transform="translate(1,1)" fill="#eae6d8" stroke="#a0968c" stroke-width=".4">
  <path class="ColorScheme-Text" d="m6.5 4c-1.933 0-3.5 1.7909-3.5 4v6c0 2.2091 1.567 4 3.5 4s3.5-1.7909 3.5-4v-6c0-2.2091-1.567-4-3.5-4zm9 0c-1.933 0-3.5 1.7909-3.5 4v6c0 2.2091 1.567 4 3.5 4s3.5-1.7909 3.5-4v-6c0-2.2091-1.567-4-3.5-4zm-9 1c1.3807 0 2.5 1.3431 2.5 3v6c0 1.6569-1.1193 3-2.5 3s-2.5-1.3431-2.5-3v-6c0-1.6569 1.1193-3 2.5-3zm9 0c1.3807 0 2.5 1.3431 2.5 3v6c0 1.6569-1.1193 3-2.5 3s-2.5-1.3431-2.5-3v-6c0-1.6569 1.1193-3 2.5-3zm-5.5 12v2h2v-2z" color="#eff0f1" fill="#eae6d8" stroke="#a0968c" stroke-width=".4"/>
 </g>
</svg>
