<?xml version="1.0" encoding="UTF-8"?>
<svg version="1.1" viewBox="0 0 24 24" xmlns="http://www.w3.org/2000/svg" xmlns:cc="http://creativecommons.org/ns#" xmlns:dc="http://purl.org/dc/elements/1.1/" xmlns:rdf="http://www.w3.org/1999/02/22-rdf-syntax-ns#">
 <metadata>
  <rdf:RDF>
   <cc:Work rdf:about="">
    <dc:format>image/svg+xml</dc:format>
    <dc:type rdf:resource="http://purl.org/dc/dcmitype/StillImage"/>
    <dc:title/>
   </cc:Work>
  </rdf:RDF>
 </metadata>
 <defs>
  <style id="current-color-scheme" type="text/css">.ColorScheme-Text {
        color:#eff0f1;
      }</style>
 </defs>
 <g transform="translate(1,1)">
  <path class="ColorScheme-Text" d="m7.5 2c-1.933 0-3.5 1.7909-3.5 4v3c0 2.2091 1.567 4 3.5 4s3.5-1.7909 3.5-4v-3c0-2.2091-1.567-4-3.5-4zm8 0c-1.933 0-3.5 1.7909-3.5 4v3c0 2.2091 1.567 4 3.5 4s3.5-1.7909 3.5-4v-3c0-2.2091-1.567-4-3.5-4zm-8 1c1.3807 0 2.5 1.3432 2.5 3v3c0 1.6569-1.1193 3-2.5 3s-2.5-1.3431-2.5-3v-3c0-1.6568 1.1193-3 2.5-3zm8 0c1.3807 0 2.5 1.3431 2.5 3v3c0 1.6569-1.1193 3-2.5 3s-2.5-1.3431-2.5-3v-3c0-1.6569 1.1193-3 2.5-3zm-12.5 9v1h1v-1z" color="#eff0f1" fill="#eae6d8" stroke="#a0968c" stroke-width=".4"/>
  <path d="m15 14v2h-2v1h2v2h1v-2h2v-1h-2v-2z" fill="#009600" stroke="#006400" stroke-width=".4"/>
 </g>
</svg>
