<?xml version="1.0" encoding="UTF-8"?>
<svg version="1.1" viewBox="0 0 24 24" xmlns="http://www.w3.org/2000/svg" xmlns:cc="http://creativecommons.org/ns#" xmlns:dc="http://purl.org/dc/elements/1.1/" xmlns:rdf="http://www.w3.org/1999/02/22-rdf-syntax-ns#">
 <metadata>
  <rdf:RDF>
   <cc:Work rdf:about="">
    <dc:format>image/svg+xml</dc:format>
    <dc:type rdf:resource="http://purl.org/dc/dcmitype/StillImage"/>
    <dc:title/>
   </cc:Work>
  </rdf:RDF>
 </metadata>
 <defs>
  <style id="current-color-scheme" type="text/css">.ColorScheme-Text {
        color:#eff0f1;
      }</style>
 </defs>
 <g transform="translate(1,1)">
  <path class="ColorScheme-Text" d="m3 2v15h1v-6h7v6h1v-6h7v6h1v-15h-16zm1 1h7v7h-7zm8 0h7v7h-7z" color="#eff0f1" fill="currentColor" fill-opacity=".1"/>
  <path class="ColorScheme-Text" d="m4 3v7h7v-7zm8 0v7h7v-7zm-8 8v6h7v-6zm8 0v6h7v-6z" color="#eff0f1" fill="currentColor" fill-opacity=".5"/>
  <path class="ColorScheme-Text" d="m3 2v1h17v-1zm0 14v1h17v-1zm0 2v1h17v-1z" color="#eff0f1" fill="#009600" stroke="#006400" stroke-width=".4"/>
 </g>
</svg>
