<?xml version="1.0" encoding="UTF-8"?>
<svg version="1.1" viewBox="0 0 24 24" xmlns="http://www.w3.org/2000/svg" xmlns:cc="http://creativecommons.org/ns#" xmlns:dc="http://purl.org/dc/elements/1.1/" xmlns:rdf="http://www.w3.org/1999/02/22-rdf-syntax-ns#">
 <metadata>
  <rdf:RDF>
   <cc:Work rdf:about="">
    <dc:format>image/svg+xml</dc:format>
    <dc:type rdf:resource="http://purl.org/dc/dcmitype/StillImage"/>
    <dc:title/>
   </cc:Work>
  </rdf:RDF>
 </metadata>
 <defs>
  <style id="current-color-scheme" type="text/css">.ColorScheme-Text {
        color:#eff0f1;
      }</style>
 </defs>
 <g transform="translate(1,1)">
  <path class="ColorScheme-Text" d="m6 3c-1.6569 0-3 1.3431-3 3s1.3431 3 3 3c1.3013 0 2.397-0.8416 2.8125-2h2.4062c-4.3329 2.4608-7.2188 6.9142-7.2188 12h2c0-6.3703 5.3012-11.585 12-12h1v-2h-10.188c-0.41551-1.1584-1.5112-2-2.8125-2zm0 2c0.55228 0 1 0.4477 1 1s-0.44772 1-1 1c-0.55228 0-1-0.4477-1-1s0.44772-1 1-1z" color="#eff0f1" fill="#eae6d8" stroke="#a0968c" stroke-width=".6"/>
  <path d="m17.5 7c-0.30269 0.014-0.3984 0.02725-0.46875 0.03125-6.1342 0.2456-11.031 5.2742-11.031 11.469 0 0.1672 0.024183 0.3345 0.03125 0.5h12.969v-12z" fill="#646464"/>
 </g>
</svg>
