<?xml version="1.0" encoding="UTF-8"?>
<svg version="1.1" viewBox="0 0 24 24" xmlns="http://www.w3.org/2000/svg" xmlns:cc="http://creativecommons.org/ns#" xmlns:dc="http://purl.org/dc/elements/1.1/" xmlns:rdf="http://www.w3.org/1999/02/22-rdf-syntax-ns#">
 <metadata>
  <rdf:RDF>
   <cc:Work rdf:about="">
    <dc:format>image/svg+xml</dc:format>
    <dc:type rdf:resource="http://purl.org/dc/dcmitype/StillImage"/>
    <dc:title/>
   </cc:Work>
  </rdf:RDF>
 </metadata>
 <defs>
  <style id="current-color-scheme" type="text/css">.ColorScheme-Text {
        color:#eff0f1;
      }</style>
 </defs>
 <g transform="translate(1,1)">
  <path d="m11.996 3.002c-2.9112 2.9195-5.8322 5.8263-8.7422 8.7363l0.00195 0.0039-0.25 0.25h-0.00586v4.0078h4.0078c2.905-2.9021 6-6.0026 8.9902-8.9961l-3.998-4z" color="#eff0f1" fill="#eae6d8" stroke="#a0968c" stroke-width=".4"/>
  <path d="m11.412 4.998 2.5879 2.5898-4.2676 4.2676-2.5879-2.5898z" color="#eff0f1" fill="#646464"/>
  <path d="m16.5 8c-0.48646 1.7025-1.6782 3.1661-2.2031 4.3379-0.1837 0.3484-0.29688 0.73941-0.29688 1.1621 0 1.385 1.115 2.5 2.5 2.5s2.5-1.115 2.5-2.5c0-0.4227-0.11316-0.81371-0.29688-1.1621-0.52492-1.1718-1.7167-2.6354-2.2031-4.3379z" color="#eff0f1" fill="#eae6d8" stroke="#a0968c" stroke-width=".4"/>
  <path d="m6.4375 9.9727 2.5879 2.5898-0.70703 0.70703-2.5898-2.5898c0.23739-0.23462 0.47283-0.47118 0.70898-0.70703z" color="#eff0f1" fill="#666666"/>
  <path d="m5.0215 11.387 2.5898 2.5898 0.00391 2e-3 -0.70703 0.70703-0.00391-2e-3 -2.5898-2.5898z" color="#eff0f1" fill="#666666"/>
  <path d="m3 18v1h16v-1z" color="#eff0f1" fill="#009600" stroke="#006400" stroke-width=".4"/>
 </g>
</svg>
