<?xml version="1.0" encoding="UTF-8"?>
<svg version="1.1" viewBox="0 0 24 24" xmlns="http://www.w3.org/2000/svg" xmlns:cc="http://creativecommons.org/ns#" xmlns:dc="http://purl.org/dc/elements/1.1/" xmlns:rdf="http://www.w3.org/1999/02/22-rdf-syntax-ns#">
 <metadata>
  <rdf:RDF>
   <cc:Work rdf:about="">
    <dc:format>image/svg+xml</dc:format>
    <dc:type rdf:resource="http://purl.org/dc/dcmitype/StillImage"/>
    <dc:title/>
   </cc:Work>
  </rdf:RDF>
 </metadata>
 <defs>
  <style id="current-color-scheme" type="text/css">.ColorScheme-Text {
        color:#eff0f1;
      }</style>
 </defs>
 <g transform="translate(1,1)">
  <path class="ColorScheme-Text" d="m5 3-1 1v1.3047l5 7.0625v3.6719l3 2.2266v-1.2461l-2-1.4844v-3.5352h-0.035156l-4.9648-7.0117v-0.98828h12v0.98828l-4.9648 7.0117h1.2246l4.7402-6.6953v-1.3047l-1-1zm1 2 2 3v-2l2-1z" color="#eff0f1" fill="#eae6d8" stroke="#a0968c" stroke-width=".4"/>
  <path d="M 13.990234,13 13,13.990234 15.009766,16 13,18.009766 13.990234,19 16,16.990234 18.009766,19 19,18.009766 16.990234,16 19,13.990234 18.009766,13 16,15.009766 Z" fill="#b40000" stroke="#640000" stroke-width=".6"/>
 </g>
</svg>
