<?xml version="1.0" encoding="UTF-8"?>
<svg version="1.1" viewBox="0 0 24 24" xmlns="http://www.w3.org/2000/svg" xmlns:cc="http://creativecommons.org/ns#" xmlns:dc="http://purl.org/dc/elements/1.1/" xmlns:rdf="http://www.w3.org/1999/02/22-rdf-syntax-ns#">
 <metadata>
  <rdf:RDF>
   <cc:Work rdf:about="">
    <dc:format>image/svg+xml</dc:format>
    <dc:type rdf:resource="http://purl.org/dc/dcmitype/StillImage"/>
    <dc:title/>
   </cc:Work>
  </rdf:RDF>
 </metadata>
 <defs>
  <style id="current-color-scheme" type="text/css">.ColorScheme-Text {
        color:#eff0f1;
      }</style>
 </defs>
 <g transform="translate(1,1)">
  <path class="ColorScheme-Text" d="m3 3v4h4v-4zm6 0v4h4v-4zm6 0v4h4v-4zm-11 1h2v2h-2zm12 0h2v2h-2zm-13 5v4h4v-4zm1 1h2v2h-2zm-1 5v4h4v-4z" color="#eff0f1" fill="#eae6d8" stroke="#a0968c" stroke-width=".4"/>
  <path d="m16 9v4.5c0 1.385-1.115 2.5-2.5 2.5-0.8187 0-1.5351-0.3955-1.9902-1h1.4902v-1h-3v3h1v-1.0762c0.6319 0.658 1.5097 1.0762 2.5 1.0762 1.939 0 3.5-1.561 3.5-3.5v-4.5z" fill="#009600" stroke="#006400" stroke-width=".4"/>
 </g>
</svg>
