<?xml version="1.0" encoding="UTF-8"?>
<svg version="1.1" viewBox="0 0 24 24" xmlns="http://www.w3.org/2000/svg" xmlns:cc="http://creativecommons.org/ns#" xmlns:dc="http://purl.org/dc/elements/1.1/" xmlns:rdf="http://www.w3.org/1999/02/22-rdf-syntax-ns#">
 <metadata>
  <rdf:RDF>
   <cc:Work rdf:about="">
    <dc:format>image/svg+xml</dc:format>
    <dc:type rdf:resource="http://purl.org/dc/dcmitype/StillImage"/>
    <dc:title/>
   </cc:Work>
  </rdf:RDF>
 </metadata>
 <defs>
  <style id="current-color-scheme" type="text/css">.ColorScheme-Text {
        color:#eff0f1;
      }</style>
 </defs>
 <g transform="translate(1,1)">
  <path class="ColorScheme-Text" d="m3 3v1h10v-1zm13 0v1h1v2h-1v1h3v-1h-1v-2h1v-1h-2zm-13 2v1h6v-1zm7 0v1h1v-1zm2 0v1h1v-1zm2 0v1h1v-1zm-11 4v1h8v-1zm11 0v1h1v2h-1v1h5v-1h-1v-2h1v-1zm2 1h1v2h-1zm-13 1v1h4v-1zm5 0v1h1v-1zm2 0v1h1v-1zm2 0v1h1v-1zm-9 4v1h7v-1zm9 0v1h1v2h-1v1h7v-1h-1v-2h1v-1h-6zm2 1h1v2h-1zm2 0h1v2h-1zm-13 1v1h2v-1zm3 0v1h1v-1zm2 0v1h1v-1zm2 0v1h1v-1z" color="#eff0f1" fill="#eae6d8" stroke="#a0968c" stroke-width=".4"/>
 </g>
</svg>
