<?xml version="1.0" encoding="UTF-8"?>
<svg version="1.1" viewBox="0 0 24 24" xmlns="http://www.w3.org/2000/svg" xmlns:cc="http://creativecommons.org/ns#" xmlns:dc="http://purl.org/dc/elements/1.1/" xmlns:rdf="http://www.w3.org/1999/02/22-rdf-syntax-ns#">
 <metadata>
  <rdf:RDF>
   <cc:Work rdf:about="">
    <dc:format>image/svg+xml</dc:format>
    <dc:type rdf:resource="http://purl.org/dc/dcmitype/StillImage"/>
    <dc:title/>
   </cc:Work>
  </rdf:RDF>
 </metadata>
 <defs>
  <style id="current-color-scheme" type="text/css">.ColorScheme-Text {
        color:#eff0f1;
      }</style>
 </defs>
 <g transform="translate(1,1)">
  <path class="ColorScheme-Text" d="m11 3.1211-3.0508 3.0508 0.70703 0.70703 2.3438-2.3438 2.3438 2.3438 0.70703-0.70703-1.1758-1.1758zm-4.8281 4.8281-3.0508 3.0508 3.0508 3.0508 0.70703-0.70703-2.3438-2.3438 2.3438-2.3438zm9.6562 0-0.70703 0.70703 2.3438 2.3438-2.3438 2.3438 0.70703 0.70703 3.0508-3.0508-1.875-1.875zm-4.8281 0.22266-2.8281 2.8281 2.8281 2.8281 2.8281-2.8281zm0 1.4141 1.4141 1.4141-1.4141 1.4141-1.4141-1.4141zm-2.3438 5.5352-0.70703 0.70703 3.0508 3.0508 3.0508-3.0508-0.70703-0.70703-2.3438 2.3438-1.168-1.168z" color="#eff0f1" fill="#eae6d8" stroke="#a0968c" stroke-width=".4"/>
 </g>
</svg>
