<?xml version="1.0" encoding="UTF-8"?>
<svg version="1.1" viewBox="0 0 16 16" xmlns="http://www.w3.org/2000/svg" xmlns:cc="http://creativecommons.org/ns#" xmlns:dc="http://purl.org/dc/elements/1.1/" xmlns:rdf="http://www.w3.org/1999/02/22-rdf-syntax-ns#">
 <metadata>
  <rdf:RDF>
   <cc:Work rdf:about="">
    <dc:format>image/svg+xml</dc:format>
    <dc:type rdf:resource="http://purl.org/dc/dcmitype/StillImage"/>
    <dc:title/>
   </cc:Work>
  </rdf:RDF>
 </metadata>
 <style id="current-color-scheme" type="text/css">.ColorScheme-Text {
            color:#eff0f1;
        }</style>
 <g class="ColorScheme-Text" fill="#eae6d8" stroke="#a0968c" stroke-width=".4">
  <path d="M6.5 3A2.5 2.5 0 0 0 4 5.5 2.5 2.5 0 0 0 6.5 8H8a2 2 0 0 1 2 2 2 2 0 0 1-2 2H4v1h4a3 3 0 0 0 3-3 3 3 0 0 0-3-3H6.5A1.5 1.5 0 0 1 5 5.5 1.5 1.5 0 0 1 6.5 4H11V3z"/>
  <path d="M7 2h1v12H7z"/>
 </g>
</svg>
