<?xml version="1.0" encoding="UTF-8"?>
<svg width="16" height="16" version="1.1" xmlns="http://www.w3.org/2000/svg" xmlns:cc="http://creativecommons.org/ns#" xmlns:dc="http://purl.org/dc/elements/1.1/" xmlns:rdf="http://www.w3.org/1999/02/22-rdf-syntax-ns#">
 <metadata>
  <rdf:RDF>
   <cc:Work rdf:about="">
    <dc:format>image/svg+xml</dc:format>
    <dc:type rdf:resource="http://purl.org/dc/dcmitype/StillImage"/>
    <dc:title/>
   </cc:Work>
  </rdf:RDF>
 </metadata>
 <style id="current-color-scheme" type="text/css">.ColorScheme-Text {
            color:#eff0f1;
        }</style>
 <path class="ColorScheme-Text" d="M9 2a3 3 0 0 0-3 3v2H4v1h2v3a2 2 0 0 1-2 2v1h7v-1H6.23A3 3 0 0 0 7 11V8h2V7H7V5a2 2 0 0 1 2-2 2 1 0 0 1 1.6.4l.69-.69A3 2 0 0 0 9 2z" fill="#eae6d8" stroke="#a0968c" stroke-width=".4"/>
</svg>
