<?xml version="1.0" encoding="UTF-8"?>
<svg width="16" height="16" version="1.1" xmlns="http://www.w3.org/2000/svg" xmlns:cc="http://creativecommons.org/ns#" xmlns:dc="http://purl.org/dc/elements/1.1/" xmlns:rdf="http://www.w3.org/1999/02/22-rdf-syntax-ns#">
 <metadata>
  <rdf:RDF>
   <cc:Work rdf:about="">
    <dc:format>image/svg+xml</dc:format>
    <dc:type rdf:resource="http://purl.org/dc/dcmitype/StillImage"/>
    <dc:title/>
   </cc:Work>
  </rdf:RDF>
 </metadata>
 <style id="current-color-scheme" type="text/css">.ColorScheme-Text {
            color:#eff0f1;
        }</style>
 <g class="ColorScheme-Text" color="#eff0f1" fill="#eae6d8" stroke="#a0968c" stroke-width=".4">
  <path d="m3 6h8v1h-8zm0 3h7v1h-7z"/>
  <path d="m8 2a4 4 0 0 0-4 4v4a4 4 0 0 0 4 4 4 4 0 0 0 3.459-2h-1.227a3 3 0 0 1-2.232 1 3 3 0 0 1-3-3v-4a3 3 0 0 1 3-3 3 3 0 0 1 2.23 1h1.229a4 4 0 0 0-3.459-2z"/>
 </g>
</svg>
