<?xml version="1.0" encoding="UTF-8"?>
<svg width="16" height="16" version="1.1" xmlns="http://www.w3.org/2000/svg" xmlns:cc="http://creativecommons.org/ns#" xmlns:dc="http://purl.org/dc/elements/1.1/" xmlns:rdf="http://www.w3.org/1999/02/22-rdf-syntax-ns#">
 <metadata>
  <rdf:RDF>
   <cc:Work rdf:about="">
    <dc:format>image/svg+xml</dc:format>
    <dc:type rdf:resource="http://purl.org/dc/dcmitype/StillImage"/>
    <dc:title/>
   </cc:Work>
  </rdf:RDF>
 </metadata>
 <style id="current-color-scheme" type="text/css">.ColorScheme-Text {
            color:#eff0f1;
        }</style>
 <g class="ColorScheme-Text" color="#eff0f1">
  <path d="m10.5 3a2.5 2.5 0 0 0-2.5 2.5 2.5 2.5 0 0 0 2.5 2.5h1.5a2 2 0 0 1 2 2 2 2 0 0 1-2 2h-4v1h4a3 3 0 0 0 3-3 3 3 0 0 0-3-3h-1.5a1.5 1.5 0 0 1-1.5-1.5 1.5 1.5 0 0 1 1.5-1.5h4.5v-1z" fill="#787878"/>
  <path d="m11 2h1v12h-1zm-11 1v10h1v-4h1.293l4 4h0.707v-0.707l-3.293-3.293h0.293a3 3 0 0 0 3-3 3 3 0 0 0-3-3h-3zm1 1h3a2 2 0 0 1 2 2 2 2 0 0 1-2 2h-3z" fill="#eae6d8" stroke="#a0968c" stroke-width=".4"/>
 </g>
</svg>
