<?xml version="1.0" encoding="UTF-8"?>
<svg version="1.1" viewBox="0 0 16 16" xmlns="http://www.w3.org/2000/svg" xmlns:cc="http://creativecommons.org/ns#" xmlns:dc="http://purl.org/dc/elements/1.1/" xmlns:rdf="http://www.w3.org/1999/02/22-rdf-syntax-ns#">
 <metadata>
  <rdf:RDF>
   <cc:Work rdf:about="">
    <dc:format>image/svg+xml</dc:format>
    <dc:type rdf:resource="http://purl.org/dc/dcmitype/StillImage"/>
    <dc:title/>
   </cc:Work>
  </rdf:RDF>
 </metadata>
 <defs>
  <style id="current-color-scheme" type="text/css">.ColorScheme-Text {
        color:#eff0f1;
      }</style>
 </defs>
 <path class="ColorScheme-Text" d="m2 2v12h1 6v-1h-2v-2h-1v2h-3v-3h2v-1h-2v-2h2v-1h-2v-1-2h3v2h1v-2h2v2h1v-2h1 1 1v2 1h-1.3438-0.65625v1h0.65625 1.3438v1h1v-6h-12zm5 4-2 2 2 2v-4zm2 0v3h1l1-1-2-2zm2 3v1h-1v4h4v-4h-1v-1h-2zm0 2h2v2h-2v-2z" fill="#eae6d8" stroke="#a0968c" stroke-width=".4"/>
</svg>
