<?xml version="1.0" encoding="UTF-8"?>
<svg version="1.1" viewBox="0 0 24 24" xmlns="http://www.w3.org/2000/svg" xmlns:cc="http://creativecommons.org/ns#" xmlns:dc="http://purl.org/dc/elements/1.1/" xmlns:rdf="http://www.w3.org/1999/02/22-rdf-syntax-ns#">
 <metadata>
  <rdf:RDF>
   <cc:Work rdf:about="">
    <dc:format>image/svg+xml</dc:format>
    <dc:type rdf:resource="http://purl.org/dc/dcmitype/StillImage"/>
    <dc:title/>
   </cc:Work>
  </rdf:RDF>
 </metadata>
 <defs>
  <style id="current-color-scheme" type="text/css">.ColorScheme-Text {
        color:#eff0f1;
      }</style>
 </defs>
 <g transform="translate(1,1)">
  <path class="ColorScheme-Text" d="m17.969 6.5312c0.0128 0.0721 0.03125 0.14284 0.03125 0.21875v7.5c0 0.69252-0.55748 1.25-1.25 1.25h-12.5c-0.0759 0-0.14664-0.01845-0.21875-0.03125 0.10431 0.58574 0.60214 1.0312 1.2188 1.0312h12.5c0.69252 0 1.25-0.55748 1.25-1.25v-7.5c0-0.61661-0.44551-1.1144-1.0312-1.2188z" color="#eff0f1" fill="#787878" fill-opacity=".50196"/>
  <path class="ColorScheme-Text" d="m4.25 5.5c-0.69252 0-1.25 0.55748-1.25 1.25v7.5c0 0.69252 0.55748 1.25 1.25 1.25h12.5c0.69252 0 1.25-0.55748 1.25-1.25v-7.5c0-0.69252-0.55748-1.25-1.25-1.25zm9.75 2h1v4h-6v2l-3-2.5 3-2.5v2h5z" color="#eff0f1" fill="#eae6d8" stroke="#a0968c" stroke-width=".4"/>
 </g>
</svg>
