<?xml version="1.0" encoding="UTF-8"?>
<svg version="1.1" viewBox="0 0 24 24" xmlns="http://www.w3.org/2000/svg" xmlns:cc="http://creativecommons.org/ns#" xmlns:dc="http://purl.org/dc/elements/1.1/" xmlns:rdf="http://www.w3.org/1999/02/22-rdf-syntax-ns#">
 <metadata>
  <rdf:RDF>
   <cc:Work rdf:about="">
    <dc:format>image/svg+xml</dc:format>
    <dc:type rdf:resource="http://purl.org/dc/dcmitype/StillImage"/>
    <dc:title/>
   </cc:Work>
  </rdf:RDF>
 </metadata>
 <defs>
  <style id="current-color-scheme" type="text/css">.ColorScheme-Text {
        color:#eff0f1;
      }</style>
 </defs>
 <g transform="translate(1,1)">
  <path class="ColorScheme-Text" d="m3 3v14l2-2h-1v-1h1v1l1-1v-2h2l2.0996-2.0996h-4.0996v-5.9004h10l1-1zm15.293 0-15.293 15.293 0.70703 0.70703 15.293-15.293zm-14.293 2h1v1h-1zm15 0-2 2h1v1h-1v-1l-1 1v1.9004h-1.9004l-2.0996 2.0996h4v6h-10l-1 1h14zm-15 2h1v1h-1zm0 2h1v1h-1zm13 0.099609h1v1h-1zm-13 2.9004h1v1h-1zm13 0h1v1h-1zm0 2h1v1h-1zm0 2h1v1h-1z" color="#eff0f1" fill="#eae6d8" stroke="#a0968c" stroke-width=".4"/>
 </g>
</svg>
