<?xml version="1.0" encoding="UTF-8"?>
<svg version="1.1" viewBox="0 0 24 24" xmlns="http://www.w3.org/2000/svg" xmlns:cc="http://creativecommons.org/ns#" xmlns:dc="http://purl.org/dc/elements/1.1/" xmlns:rdf="http://www.w3.org/1999/02/22-rdf-syntax-ns#">
 <metadata>
  <rdf:RDF>
   <cc:Work rdf:about="">
    <dc:format>image/svg+xml</dc:format>
    <dc:type rdf:resource="http://purl.org/dc/dcmitype/StillImage"/>
    <dc:title/>
   </cc:Work>
  </rdf:RDF>
 </metadata>
 <defs>
  <style id="current-color-scheme" type="text/css">.ColorScheme-Text {
        color:#eff0f1;
      }</style>
 </defs>
 <g transform="translate(1,1)">
  <path class="ColorScheme-Text" d="m3 2v9h16v-9h-15zm1 1h1v1h-1zm2 0h10v7h-10v-4zm11 0h1v1h-1zm-13 3h1v1h-1zm13 0h1v1h-1zm-13 3h1v1h-1zm13 0h1v1h-1zm-12 3v2h-1v1h-1v1h1v1h1v2h1v-1h1v-1h1v-1h1v1h1v2h1v-1h1v-2h1v1h1v1h1v1h1v-1h1v-1h1v-1h1v-1h-1v-1h-1v-1h-1v-1h-1v1h-1v1h-1v1h-1v-2h-1v-1h-1v2h-1v1h-1v-1h-1v-1h-1v-1z" color="#eff0f1" fill="#eae6d8" stroke="#a0968c" stroke-width=".4"/>
 </g>
</svg>
