<?xml version="1.0" encoding="UTF-8"?>
<svg version="1.1" viewBox="0 0 24 24" xmlns="http://www.w3.org/2000/svg" xmlns:cc="http://creativecommons.org/ns#" xmlns:dc="http://purl.org/dc/elements/1.1/" xmlns:rdf="http://www.w3.org/1999/02/22-rdf-syntax-ns#">
 <metadata>
  <rdf:RDF>
   <cc:Work rdf:about="">
    <dc:format>image/svg+xml</dc:format>
    <dc:type rdf:resource="http://purl.org/dc/dcmitype/StillImage"/>
    <dc:title/>
   </cc:Work>
  </rdf:RDF>
 </metadata>
 <defs>
  <style id="current-color-scheme" type="text/css">.ColorScheme-Text {
        color:#eff0f1;
      }</style>
 </defs>
 <g transform="translate(1,1)">
  <path class="ColorScheme-Text" d="m6 3a5 5 0 0 0-5 5v6a5 5 0 0 0 5 5 5 5 0 0 0 5-5v-6a5 5 0 0 0-5-5zm0 1a4 4 0 0 1 4 4v6a4 4 0 0 1-4 4 4 4 0 0 1-4-4v-6a4 4 0 0 1 4-4zm13 3v1h1v-1zm-7 3v9h1v-6a2 2 0 0 1 2-2 2 2 0 0 1 2 2h1a3 3 0 0 0-3-3 3 3 0 0 0-2 0.76758v-0.76758zm7 0v9h1v-9z" color="#eff0f1" fill="#eae6d8" stroke="#a0968c" stroke-width=".4"/>
 </g>
</svg>
