<?xml version="1.0" encoding="UTF-8"?>
<svg version="1.1" viewBox="0 0 24 24" xmlns="http://www.w3.org/2000/svg" xmlns:cc="http://creativecommons.org/ns#" xmlns:dc="http://purl.org/dc/elements/1.1/" xmlns:rdf="http://www.w3.org/1999/02/22-rdf-syntax-ns#">
 <metadata>
  <rdf:RDF>
   <cc:Work rdf:about="">
    <dc:format>image/svg+xml</dc:format>
    <dc:type rdf:resource="http://purl.org/dc/dcmitype/StillImage"/>
    <dc:title/>
   </cc:Work>
  </rdf:RDF>
 </metadata>
 <defs>
  <style id="current-color-scheme" type="text/css">.ColorScheme-Text {
        color:#eff0f1;
      }</style>
 </defs>
 <g transform="translate(1,1)">
  <path class="ColorScheme-Text" d="m15 3-0.76562 2.1523-2.0625-0.98047 0.98047 2.0625-2.1523 0.76562 2.1523 0.76562-0.98047 2.0625 2.0625-0.98047 0.76562 2.1523 0.76562-2.1523 2.0625 0.98047-0.98047-2.0625 2.1523-0.76562-2.1523-0.76562 0.98047-2.0625-2.0625 0.98047zm-7.3008 6-0.49023 2.625-1.9688-1.8047 0.88672 2.5176-2.6074-0.57812 2.0273 1.7383-2.5469 0.80273 2.625 0.49219-1.8047 1.9668 2.5176-0.88672-0.57812 2.6074 1.7383-2.0273 0.80273 2.5469 0.49219-2.623 1.9668 1.8027-0.88672-2.5176 2.6074 0.57812-2.0273-1.7383 2.5469-0.80273-2.623-0.49024 1.8027-1.9688-2.5176 0.88672 0.57812-2.6074-1.7383 2.0273z" color="#eff0f1" fill="#eae6d8" stroke="#a0968c" stroke-width=".4"/>
 </g>
</svg>
