<?xml version="1.0" encoding="UTF-8"?>
<svg version="1.1" viewBox="0 0 24 24" xmlns="http://www.w3.org/2000/svg" xmlns:cc="http://creativecommons.org/ns#" xmlns:dc="http://purl.org/dc/elements/1.1/" xmlns:rdf="http://www.w3.org/1999/02/22-rdf-syntax-ns#">
 <metadata>
  <rdf:RDF>
   <cc:Work rdf:about="">
    <dc:format>image/svg+xml</dc:format>
    <dc:type rdf:resource="http://purl.org/dc/dcmitype/StillImage"/>
    <dc:title/>
   </cc:Work>
  </rdf:RDF>
 </metadata>
 <defs>
  <style id="current-color-scheme" type="text/css">.ColorScheme-Text {
        color:#eff0f1;
      }</style>
 </defs>
 <g transform="translate(1,1)">
  <path class="ColorScheme-Text" d="m3.0352 10.264c-0.023027 0.24477-0.034758 0.49048-0.035156 0.73633 0 4.4183 3.5817 8 8 8s8-3.5817 8-8c-0.0018-0.23806-0.01414-0.47593-0.03711-0.71289-0.39444 1.5385-3.8413 2.7128-7.9629 2.7129-4.1442-8.15e-4 -7.6006-1.1883-7.9648-2.7363z" color="#eff0f1" fill="#006400" fill-opacity=".50196"/>
  <path class="ColorScheme-Text" d="m11 3a8 8 0 0 0-8 8 8 8 0 0 0 8 8 8 8 0 0 0 8-8 8 8 0 0 0-8-8zm0 1a7 7 0 0 1 7 7 7 7 0 0 1-7 7 7 7 0 0 1-7-7 7 7 0 0 1 7-7z" color="#eff0f1" fill="#eae6d8" stroke="#a0968c" stroke-width=".4"/>
 </g>
</svg>
