<?xml version="1.0" encoding="UTF-8"?>
<svg version="1.1" viewBox="0 0 24 24" xmlns="http://www.w3.org/2000/svg" xmlns:cc="http://creativecommons.org/ns#" xmlns:dc="http://purl.org/dc/elements/1.1/" xmlns:rdf="http://www.w3.org/1999/02/22-rdf-syntax-ns#">
 <metadata>
  <rdf:RDF>
   <cc:Work rdf:about="">
    <dc:format>image/svg+xml</dc:format>
    <dc:type rdf:resource="http://purl.org/dc/dcmitype/StillImage"/>
    <dc:title/>
   </cc:Work>
  </rdf:RDF>
 </metadata>
 <defs>
  <style id="current-color-scheme" type="text/css">.ColorScheme-Text {
        color:#eff0f1;
      }</style>
 </defs>
 <g transform="translate(1,1)" stroke-width=".4">
  <g fill="#eae6d8" stroke="#a0968c">
   <path d="m3 3v2a14 14 0 0 1 12.633 8h2.1875a16 16 0 0 0-14.82-10z" color="#eff0f1"/>
   <path d="m3 7v2a10 10 0 0 1 8 4.0293v-0.0293h2.3809a12 12 0 0 0-10.381-6z" color="#eff0f1"/>
   <path d="m3 11v2a6 6 0 0 1 6 6h2a8 8 0 0 0-8-8z" color="#eff0f1"/>
  </g>
  <path d="m16 14v2h-2v1h2v2h1v-2h2v-1h-2v-2z" color="#eff0f1" fill="#009600" stroke="#006400"/>
  <path d="m4.5 16a1.5 1.5 0 0 0-1.5 1.5 1.5 1.5 0 0 0 1.5 1.5 1.5 1.5 0 0 0 1.5-1.5 1.5 1.5 0 0 0-1.5-1.5z" color="#eff0f1" fill="#2e8cf0" stroke="#006cb3"/>
 </g>
</svg>
