<?xml version="1.0" encoding="UTF-8"?>
<svg version="1.1" viewBox="0 0 24 24" xmlns="http://www.w3.org/2000/svg" xmlns:cc="http://creativecommons.org/ns#" xmlns:dc="http://purl.org/dc/elements/1.1/" xmlns:rdf="http://www.w3.org/1999/02/22-rdf-syntax-ns#">
 <metadata>
  <rdf:RDF>
   <cc:Work rdf:about="">
    <dc:format>image/svg+xml</dc:format>
    <dc:type rdf:resource="http://purl.org/dc/dcmitype/StillImage"/>
    <dc:title/>
   </cc:Work>
  </rdf:RDF>
 </metadata>
 <defs>
  <style id="current-color-scheme" type="text/css">.ColorScheme-Text {
        color:#eff0f1;
      }</style>
 </defs>
 <g transform="translate(1,1)">
  <path class="ColorScheme-Text" d="m3 3v2a14 14 0 0 1 12.633 8h2.1875a16 16 0 0 0-14.82-10zm0 4v2a10 10 0 0 1 8 4.0293v-0.029297h2.3809a12 12 0 0 0-10.381-6zm0 4v2a6 6 0 0 1 6 6h2a8 8 0 0 0-8-8zm1.5 5a1.5 1.5 0 0 0-1.5 1.5 1.5 1.5 0 0 0 1.5 1.5 1.5 1.5 0 0 0 1.5-1.5 1.5 1.5 0 0 0-1.5-1.5z" color="#eff0f1" fill="#eae6d8" stroke="#a0968c" stroke-width=".6"/>
  <path d="m14 16v1h5v-1z" fill="#b40000" stroke="#640000" stroke-width=".4"/>
 </g>
</svg>
