<?xml version="1.0" encoding="UTF-8"?>
<svg version="1.1" viewBox="0 0 24 24" xmlns="http://www.w3.org/2000/svg" xmlns:cc="http://creativecommons.org/ns#" xmlns:dc="http://purl.org/dc/elements/1.1/" xmlns:rdf="http://www.w3.org/1999/02/22-rdf-syntax-ns#">
 <metadata>
  <rdf:RDF>
   <cc:Work rdf:about="">
    <dc:format>image/svg+xml</dc:format>
    <dc:type rdf:resource="http://purl.org/dc/dcmitype/StillImage"/>
    <dc:title/>
   </cc:Work>
  </rdf:RDF>
 </metadata>
 <defs>
  <style id="current-color-scheme" type="text/css">.ColorScheme-Text {
        color:#eff0f1;
      }</style>
 </defs>
 <g transform="translate(1,1)">
  <path class="ColorScheme-Text" d="m11 3c-4.432 0-8 3.568-8 8s3.568 8 8 8c0.3394 0 0.67262-0.02356 1-0.06641v-1.0078c-0.32646 0.047607-0.65989 0.074219-1 0.074219-3.878 0-7-3.122-7-7s3.122-7 7-7 7 3.122 7 7c0 0.6962-0.10544 1.3662-0.29297 2h1.0332c0.16371-0.6397 0.25977-1.3079 0.25977-2 0-4.432-3.568-8-8-8zm-3 5v6h6v-6zm7 6v1h4v-1zm-1 2v1h5v-1zm-1 2v1h6v-1h-5z" color="#eff0f1" fill="#eae6d8" stroke="#a0968c" stroke-width=".4"/>
 </g>
</svg>
