<?xml version="1.0" encoding="UTF-8"?>
<svg version="1.1" viewBox="0 0 24 24" xmlns="http://www.w3.org/2000/svg" xmlns:cc="http://creativecommons.org/ns#" xmlns:dc="http://purl.org/dc/elements/1.1/" xmlns:rdf="http://www.w3.org/1999/02/22-rdf-syntax-ns#">
 <metadata>
  <rdf:RDF>
   <cc:Work rdf:about="">
    <dc:format>image/svg+xml</dc:format>
    <dc:type rdf:resource="http://purl.org/dc/dcmitype/StillImage"/>
    <dc:title/>
   </cc:Work>
  </rdf:RDF>
 </metadata>
 <defs>
  <style id="current-color-scheme" type="text/css">.ColorScheme-Text {
        color:#eff0f1;
      }
      .ColorScheme-Highlight {
        color:#3daee9;
      }</style>
 </defs>
 <g transform="translate(1,1)" stroke-width=".4">
  <path class="ColorScheme-Text" d="m3 3v2h1v-1h1v-1zm5 0v1h2v-1zm4 0v1h2v-1zm5 0v1h1v1h1v-2zm-8 4v1h2.293l-3.293 3.293 0.70703 0.70703 3.293-3.293v2.293h1v-4h-1zm-6 1v2h1v-2zm0 5v6h6v-6zm1 1h4v4h-4z" color="#eff0f1" fill="#eae6d8" stroke="#a0968c"/>
  <path class="ColorScheme-Highlight" d="m19 19h-1v-8c-0.50849 0.43877-1.5804 1.4235-2.0942 1.8459l-0.57085-0.64819 2.665-2.1978h1z" color="#3daee9" fill="#009600" stroke="#006400"/>
 </g>
</svg>
