<?xml version="1.0" encoding="UTF-8"?>
<svg version="1.1" viewBox="0 0 24 24" xmlns="http://www.w3.org/2000/svg" xmlns:cc="http://creativecommons.org/ns#" xmlns:dc="http://purl.org/dc/elements/1.1/" xmlns:rdf="http://www.w3.org/1999/02/22-rdf-syntax-ns#">
 <metadata>
  <rdf:RDF>
   <cc:Work rdf:about="">
    <dc:format>image/svg+xml</dc:format>
    <dc:type rdf:resource="http://purl.org/dc/dcmitype/StillImage"/>
    <dc:title/>
   </cc:Work>
  </rdf:RDF>
 </metadata>
 <defs>
  <style id="current-color-scheme" type="text/css">.ColorScheme-Text {
        color:#eff0f1;
      }</style>
 </defs>
 <g transform="translate(1,1)">
  <path class="ColorScheme-Text" d="m6 3-4 4v12h3v-1h-2v-10h4v-4h12v3h1v-4zm8 4-4.002 4.002h-1.9961v1h2.4102l3.5898-3.5898 2.123 2.123 0.0059-0.0039 0.0039 0.0039 2.8281-2.8281c0.002932 5e-3 -0.70707-0.70703-0.70707-0.70703l-2.125 2.125-2.127-2.125-2e-3 0.00195zm-7 2v10h7v-1h-6v-4h2.4609l3.5352 3.5352 2e-3 -2e-3 2e-3 2e-3v-1.4141l-2e-3 2e-3 -3.1231-3.1231h-2.875v-4zm10 5v2h-2v1h2v2h1v-2h2v-1h-2v-2z" color="#eff0f1" fill="#eae6d8" stroke="#a0968c" stroke-width=".4"/>
 </g>
</svg>
