<?xml version="1.0" encoding="UTF-8"?>
<svg version="1.1" viewBox="0 0 24 24" xmlns="http://www.w3.org/2000/svg" xmlns:cc="http://creativecommons.org/ns#" xmlns:dc="http://purl.org/dc/elements/1.1/" xmlns:rdf="http://www.w3.org/1999/02/22-rdf-syntax-ns#">
 <metadata>
  <rdf:RDF>
   <cc:Work rdf:about="">
    <dc:format>image/svg+xml</dc:format>
    <dc:type rdf:resource="http://purl.org/dc/dcmitype/StillImage"/>
    <dc:title/>
   </cc:Work>
  </rdf:RDF>
 </metadata>
 <defs>
  <style id="current-color-scheme" type="text/css">.ColorScheme-Text {
        color:#eff0f1;
      }
      .ColorScheme-Highlight {
        color:#3daee9;
      }</style>
 </defs>
 <g transform="translate(1,1)" stroke-width=".4">
  <path class="ColorScheme-Highlight" d="m19.192 18.829h-5.8725v-0.91093l2.3259-2.3502q1.0506-1.0628 1.3907-1.5182 0.34008-0.45546 0.50405-0.88057 0.17004-0.4251 0.17004-0.917 0-0.70445-0.41903-1.0992-0.41903-0.39474-1.1478-0.39474-0.54656 0-1.0385 0.18219-0.48583 0.18219-1.0992 0.66194l-0.583-0.73482q1.2449-1.0445 2.7206-1.0445 1.2389 0 1.9615 0.63765 0.72874 0.63158 0.72874 1.7247 0 0.583-0.21255 1.1296-0.21255 0.54049-0.63765 1.1053-0.4251 0.5587-1.4271 1.5364l-1.8522 1.8279v0.04858h4.4879v0.99595z" color="#3daee9" fill="#009600" stroke="#006400"/>
  <path class="ColorScheme-Text" d="m3 3v2h1v-1h1v-1zm5 0v1h2v-1zm4 0v1h2v-1zm5 0v1h1v1h1v-2zm-8 4v1h2.293l-3.293 3.293 0.70703 0.70703 3.293-3.293v2.293h1v-4h-1zm-6 1v2h1v-2zm0 5v6h6v-6zm1 1h4v4h-4z" color="#eff0f1" fill="#eae6d8" stroke="#a0968c"/>
 </g>
</svg>
