<?xml version="1.0" encoding="UTF-8"?>
<svg version="1.1" viewBox="0 0 32 32" xmlns="http://www.w3.org/2000/svg" xmlns:cc="http://creativecommons.org/ns#" xmlns:dc="http://purl.org/dc/elements/1.1/" xmlns:rdf="http://www.w3.org/1999/02/22-rdf-syntax-ns#">
 <metadata>
  <rdf:RDF>
   <cc:Work rdf:about="">
    <dc:format>image/svg+xml</dc:format>
    <dc:type rdf:resource="http://purl.org/dc/dcmitype/StillImage"/>
    <dc:title/>
   </cc:Work>
  </rdf:RDF>
 </metadata>
 <defs>
  <style id="current-color-scheme" type="text/css">.ColorScheme-Text {
        color:#eff0f1;
      }</style>
 </defs>
 <g stroke-width=".4">
  <path d="m4 4v5h1v-4h4v-1z" fill="#eae6d8" stroke="#a0968c"/>
  <path d="m11 4v1h4v-1z" fill="#eae6d8" stroke="#a0968c"/>
  <path d="m23 4-0.70703 0.70703 3.793 3.793h-11.086v1h11.086l-3.793 3.793 0.70703 0.70703 5-5-5-5z" fill="#009600" stroke="#006400"/>
 </g>
 <g fill="#eae6d8" stroke="#a0968c" stroke-width=".4">
  <path d="m4 11v4h1v-4z"/>
  <path d="m27 15v5h1v-5z"/>
  <path d="m4 17v3h1v-3z"/>
  <path d="m4 21v7h7v-7z"/>
 </g>
 <path d="m5 22h5v5h-5v-4z" fill="#646464" stroke="#a0968c" stroke-width=".4"/>
 <g fill="#eae6d8" stroke="#a0968c" stroke-width=".4">
  <path d="m27 23v4h-4v1h5v-5z"/>
  <path d="m12 27v1h3v-1z"/>
  <path d="m17 27v1h4v-1z"/>
 </g>
</svg>
