<?xml version="1.0" encoding="UTF-8"?>
<svg version="1.1" viewBox="0 0 24 24" xmlns="http://www.w3.org/2000/svg" xmlns:cc="http://creativecommons.org/ns#" xmlns:dc="http://purl.org/dc/elements/1.1/" xmlns:rdf="http://www.w3.org/1999/02/22-rdf-syntax-ns#">
 <metadata>
  <rdf:RDF>
   <cc:Work rdf:about="">
    <dc:format>image/svg+xml</dc:format>
    <dc:type rdf:resource="http://purl.org/dc/dcmitype/StillImage"/>
    <dc:title/>
   </cc:Work>
  </rdf:RDF>
 </metadata>
 <defs>
  <style id="current-color-scheme" type="text/css">.ColorScheme-Text {
        color:#eff0f1;
      }
      .ColorScheme-Highlight {
        color:#3daee9;
      }</style>
 </defs>
 <g transform="translate(1,1)" stroke-width=".4">
  <path class="ColorScheme-Highlight" d="m18.662 3.6309-10.662 9.7734v0.5957h0.83008l10.508-9.6309z" color="#3daee9" fill="#009600" stroke="#006400"/>
  <path class="ColorScheme-Text" d="m4 3v14h-1v1h1v1h1v-1h14v-1h-14v-14zm7.4785 1v1h1v-1zm1 1v1h1v-1zm0 1h-1v1h1zm-1 0v-1h-1v1zm5.5215 2v1h1v-1zm1 1v1h1v-1zm0 1h-1v1h1zm-1 0v-1h-1v1zm-4 1v1h1v-1zm1 1v1h1v-1zm0 1h-1v1h1zm-1 0v-1h-1v1zm-6 0v1h1v-1zm1 1v1h1v-1zm0 1h-1v1h1zm-1 0v-1h-1v1z" color="#eff0f1" fill="#eae6d8" stroke="#a0968c"/>
 </g>
</svg>
