<?xml version="1.0" encoding="UTF-8"?>
<svg version="1.1" viewBox="0 0 24 24" xmlns="http://www.w3.org/2000/svg" xmlns:cc="http://creativecommons.org/ns#" xmlns:dc="http://purl.org/dc/elements/1.1/" xmlns:rdf="http://www.w3.org/1999/02/22-rdf-syntax-ns#">
 <metadata>
  <rdf:RDF>
   <cc:Work rdf:about="">
    <dc:format>image/svg+xml</dc:format>
    <dc:type rdf:resource="http://purl.org/dc/dcmitype/StillImage"/>
    <dc:title/>
   </cc:Work>
  </rdf:RDF>
 </metadata>
 <defs>
  <style id="current-color-scheme" type="text/css">.ColorScheme-Text {
        color:#eff0f1;
      }</style>
 </defs>
 <g transform="translate(1,1)">
  <path class="ColorScheme-Text" d="m3 3v16h16v-16zm1 1h14v2.3867a11 6 0 0 0-7-1.3867 11 6 0 0 0-7 1.3809zm7 2a10 5 0 0 1 7 1.4414v2.1074a8 3 0 0 0-7-1.5488 8 3 0 0 0-7 1.5547v-2.1094a10 5 0 0 1 7-1.4453zm0 3a7 2 0 0 1 7 2 7 2 0 0 1-7 2 7 2 0 0 1-7-2 7 2 0 0 1 7-2zm7 3.4453v2.1133a10 5 0 0 1-7 1.4414 10 5 0 0 1-7-1.4453v-2.1035a8 3 0 0 0 7 1.5488 8 3 0 0 0 7-1.5547zm0 3.168v2.3867h-14v-2.3809a11 6 0 0 0 7 1.3809 11 6 0 0 0 7-1.3867z" color="#eff0f1" fill="#eae6d8" stroke="#a0968c" stroke-width=".4"/>
 </g>
</svg>
