<?xml version="1.0" encoding="UTF-8"?>
<svg version="1.1" viewBox="0 0 24 24" xmlns="http://www.w3.org/2000/svg" xmlns:cc="http://creativecommons.org/ns#" xmlns:dc="http://purl.org/dc/elements/1.1/" xmlns:rdf="http://www.w3.org/1999/02/22-rdf-syntax-ns#">
 <metadata>
  <rdf:RDF>
   <cc:Work rdf:about="">
    <dc:format>image/svg+xml</dc:format>
    <dc:type rdf:resource="http://purl.org/dc/dcmitype/StillImage"/>
    <dc:title/>
   </cc:Work>
  </rdf:RDF>
 </metadata>
 <defs>
  <style id="current-color-scheme" type="text/css">.ColorScheme-Text {
        color:#eff0f1;
      }</style>
 </defs>
 <g transform="translate(1,1)">
  <path class="ColorScheme-Text" d="m11 3c-4.4183 0-8 3.5817-8 8 0 2.0276 0.75669 3.8713 2 5.2812 0.20803 0.26724 0.49881 0.5051 0.71875 0.71875 1.4099 1.2433 3.2536 2 5.2812 2 4.4183 0 8-3.5817 8-8 0-2.0276-0.75669-3.8713-2-5.2812-0.11136-0.12621-0.22478-0.25603-0.34375-0.375l-0.375-0.34375c-1.4099-1.2433-3.2536-2-5.2812-2zm4.9492 3.0508c0.69736 0.70031 1.2385 1.5403 1.5879 2.4648 9.7e-4 2e-3 0.0029 0.00286 0.0039 0.00586 0.0066 0.019502 0.01311 0.039034 0.01953 0.058594 0.28387 0.68484 0.35774 1.3831 0.42383 2.0957 5e-3 0.10821 0.01367 0.21462 0.01367 0.32422v0.04297c-0.06847 3.5453-2.5928 6.1807-5.9531 6.8711-0.12834 0.0192-0.25621 0.04053-0.38672 0.05273-0.13585 0.01048-0.27197 0.017-0.4082 0.01953-0.083684 0.0030041-0.16556 0.013676-0.24999 0.013676-0.0149 0-0.03002-0.0039-0.04492-0.0039-0.82235 0.01319-1.5968-0.19272-2.3574-0.43164-0.0456-0.017-0.091599-0.03278-0.13672-0.05078-0.1708-0.06694-0.33889-0.14056-0.50391-0.2207-0.70609-0.33817-1.3504-0.79239-1.9062-1.3438z" color="#eff0f1" fill="#eae6d8" stroke="#a0968c" stroke-width=".4"/>
 </g>
</svg>
