<?xml version="1.0" encoding="UTF-8"?>
<svg version="1.1" viewBox="0 0 24 24" xmlns="http://www.w3.org/2000/svg" xmlns:cc="http://creativecommons.org/ns#" xmlns:dc="http://purl.org/dc/elements/1.1/" xmlns:rdf="http://www.w3.org/1999/02/22-rdf-syntax-ns#">
 <metadata>
  <rdf:RDF>
   <cc:Work rdf:about="">
    <dc:format>image/svg+xml</dc:format>
    <dc:type rdf:resource="http://purl.org/dc/dcmitype/StillImage"/>
    <dc:title/>
   </cc:Work>
  </rdf:RDF>
 </metadata>
 <defs>
  <style id="current-color-scheme" type="text/css">.ColorScheme-Text {
        color:#eff0f1;
      }</style>
 </defs>
 <g transform="translate(1,1)">
  <path class="ColorScheme-Text" d="m3 7c-0.55401 0-1 0.44599-1 1v6c0 0.55401 0.44599 1 1 1h6c0.55401 0 1-0.44599 1-1v-1h2v1c0 0.554 0.44599 1 1 1h6c0.55401 0 1-0.446 1-1v-6c0-0.554-0.44599-1-1-1h-6c-0.55401 0-1 0.446-1 1v1h-2v-1c0-0.55401-0.44599-1-1-1zm0 1h6v1c-0.55401 0-1 0.44599-1 1v2c0 0.55401 0.44599 1 1 1v1h-6zm10 0h6v6h-6v-1c0.55401 0 1-0.44599 1-1v-2c0-0.55401-0.44599-1-1-1zm-4 2h4v2h-4z" color="#eff0f1" fill="#eae6d8" stroke="#a0968c" stroke-width=".4"/>
 </g>
</svg>
