<?xml version="1.0" encoding="UTF-8"?>
<svg version="1.1" viewBox="0 0 24 24" xmlns="http://www.w3.org/2000/svg" xmlns:cc="http://creativecommons.org/ns#" xmlns:dc="http://purl.org/dc/elements/1.1/" xmlns:rdf="http://www.w3.org/1999/02/22-rdf-syntax-ns#">
 <metadata>
  <rdf:RDF>
   <cc:Work rdf:about="">
    <dc:format>image/svg+xml</dc:format>
    <dc:type rdf:resource="http://purl.org/dc/dcmitype/StillImage"/>
    <dc:title/>
   </cc:Work>
  </rdf:RDF>
 </metadata>
 <defs>
  <style id="current-color-scheme" type="text/css">.ColorScheme-Text {
        color:#eff0f1;
      }
      .ColorScheme-Highlight {
        color:#3daee9;
      }</style>
 </defs>
 <g transform="translate(1,1)" stroke-width=".4">
  <path class="ColorScheme-Text" d="m3 3v3h3v-3h-1zm13 0v3h3v-3h-2zm-12 1h1v1h-1zm13 0h1v1h-1zm-10 1v1h2v-1zm3 0v1h2v-1zm3 0v1h2v-1zm-8 2v2h1v-2zm11 0v2h1v-2zm-11 3v2h1v-2zm11 0v2h1v-2zm-11 3v2h1v-2zm-2 3v3h3v-3h-2zm4 0v1h2v-1zm3 0v1h2v-1zm-6 1h1v1h-1z" color="#eff0f1" fill="#eae6d8" stroke="#a0968c"/>
  <path class="ColorScheme-Highlight" d="m13 13v2h1v-1h1v-1zm4 0v1h1v1h1v-2h-1zm-4 4v2h2v-1h-1v-1zm5 0v1h-1v1h2v-2z" color="#3daee9" fill="#009600" stroke="#006400"/>
 </g>
</svg>
