<?xml version="1.0" encoding="UTF-8"?>
<svg version="1.1" viewBox="0 0 24 24" xmlns="http://www.w3.org/2000/svg" xmlns:cc="http://creativecommons.org/ns#" xmlns:dc="http://purl.org/dc/elements/1.1/" xmlns:rdf="http://www.w3.org/1999/02/22-rdf-syntax-ns#">
 <metadata>
  <rdf:RDF>
   <cc:Work rdf:about="">
    <dc:format>image/svg+xml</dc:format>
    <dc:type rdf:resource="http://purl.org/dc/dcmitype/StillImage"/>
    <dc:title/>
   </cc:Work>
  </rdf:RDF>
 </metadata>
 <defs>
  <style id="current-color-scheme" type="text/css">.ColorScheme-Text {
        color:#eff0f1;
      }
      .ColorScheme-Highlight {
        color:#3daee9;
      }</style>
 </defs>
 <g transform="translate(1,1)" stroke-width=".4">
  <path class="ColorScheme-Text" d="m1 2a10 15 0 0 0 9 14.91v-1.0039a9 14 0 0 1-8-13.906zm19 0a9 14 0 0 1-8 13.896v1.0293a10 15 0 0 0 9-14.926zm-19 13v3h3v-1h1v-1h-1v-1zm17 0v1h-1v1h1v1h3v-3zm-16 1h1v1h-1zm4 0v1h1v-1zm9 0v1h1v-1zm4 0h1v1h-1z" color="#eff0f1" fill="#eae6d8" stroke="#a0968c"/>
  <path class="ColorScheme-Highlight" d="m11 13-3 5h6zm0 2 1 2h-2z" color="#3daee9" fill="#009600" stroke="#006400"/>
 </g>
</svg>
