<?xml version="1.0" encoding="UTF-8"?>
<svg version="1.1" viewBox="0 0 24 24" xmlns="http://www.w3.org/2000/svg" xmlns:cc="http://creativecommons.org/ns#" xmlns:dc="http://purl.org/dc/elements/1.1/" xmlns:rdf="http://www.w3.org/1999/02/22-rdf-syntax-ns#">
 <metadata>
  <rdf:RDF>
   <cc:Work rdf:about="">
    <dc:format>image/svg+xml</dc:format>
    <dc:type rdf:resource="http://purl.org/dc/dcmitype/StillImage"/>
    <dc:title/>
   </cc:Work>
  </rdf:RDF>
 </metadata>
 <defs>
  <style id="current-color-scheme" type="text/css">.ColorScheme-Text {
        color:#eff0f1;
      }
      .ColorScheme-Highlight {
        color:#3daee9;
      }</style>
 </defs>
 <g transform="translate(1,1)" stroke-width=".4">
  <path class="ColorScheme-Text" d="m1.002 3-0.00195 0.00195v0.99609l0.00195 0.00195h0.99609l0.00195-0.00195v0.00586c4.313 0.75011 7.6245 6.1629 7.9648 12.789l0.92969-0.92969c-0.62303-6.7634-4.2496-12.163-8.8945-12.863h-0.00195zm8.998 0v3h1v1h1v-1h1v-3zm10 0c-5e-3 7.0646-3.3936 12.999-7.8887 13.869l0.30273 0.30273-0.41406 0.41406v0.33984c5.1101-0.77038 9.0003-7.222 9-14.926zm-9 1h1v1h-1zm0 4v1h1v-1zm0 2v1h1v-1zm7 6v1h-1v1h1v1h3v-3zm-3 1v1h1v-1zm4 0h1v1h-1zm-9.0098 0.57617c2e-3 0.11193 0.00977 0.22147 0.00977 0.33398h0.32422z" color="#eff0f1" fill="#eae6d8" stroke="#a0968c"/>
  <path class="ColorScheme-Highlight" d="m11 14.344-2.8281 2.8281 2.8281 2.8281 2.8281-2.8281zm0 1.4141 1.4141 1.4141-1.4141 1.4141-1.4141-1.4141z" color="#3daee9" fill="#009600" stroke="#006400"/>
 </g>
</svg>
