<?xml version="1.0" encoding="UTF-8"?>
<svg version="1.1" viewBox="0 0 24 24" xmlns="http://www.w3.org/2000/svg" xmlns:cc="http://creativecommons.org/ns#" xmlns:dc="http://purl.org/dc/elements/1.1/" xmlns:rdf="http://www.w3.org/1999/02/22-rdf-syntax-ns#">
 <metadata>
  <rdf:RDF>
   <cc:Work rdf:about="">
    <dc:format>image/svg+xml</dc:format>
    <dc:type rdf:resource="http://purl.org/dc/dcmitype/StillImage"/>
    <dc:title/>
   </cc:Work>
  </rdf:RDF>
 </metadata>
 <defs>
  <style id="current-color-scheme" type="text/css">.ColorScheme-Text {
        color:#eff0f1;
      }
      .ColorScheme-Highlight {
        color:#3daee9;
      }</style>
 </defs>
 <g transform="translate(1,1)" stroke-width=".4">
  <path class="ColorScheme-Text" d="m15 4.5a10.5 10.5 0 0 0-10.5 10.5h1a9.5 9.5 0 0 1 9.5-9.5zm1.5 9.5a2.5 2.5 0 0 0-2.5 2.5 2.5 2.5 0 0 0 0.41602 1.377l0.73242-0.73242a1.5 1.5 0 0 1-0.14844-0.64453 1.5 1.5 0 0 1 1.5-1.5 1.5 1.5 0 0 1 0.64453 0.14844l0.73242-0.73242a2.5 2.5 0 0 0-1.377-0.41602zm2.084 1.123-0.73242 0.73242a1.5 1.5 0 0 1 0.14844 0.64453 1.5 1.5 0 0 1-1.5 1.5 1.5 1.5 0 0 1-0.64453-0.14844l-0.73242 0.73242a2.5 2.5 0 0 0 1.377 0.41602 2.5 2.5 0 0 0 2.5-2.5 2.5 2.5 0 0 0-0.41602-1.377z" color="#eff0f1" fill="#eae6d8" stroke="#a0968c"/>
  <path class="ColorScheme-Highlight" d="m15 3v4h4v-4zm1 1h2v2h-2zm-13 11v4h4v-4zm1 1h2v2h-2z" color="#3daee9" fill="#009600" stroke="#006400"/>
 </g>
</svg>
