<?xml version="1.0" encoding="UTF-8"?>
<svg version="1.1" viewBox="0 0 24 24" xmlns="http://www.w3.org/2000/svg" xmlns:cc="http://creativecommons.org/ns#" xmlns:dc="http://purl.org/dc/elements/1.1/" xmlns:rdf="http://www.w3.org/1999/02/22-rdf-syntax-ns#">
 <metadata>
  <rdf:RDF>
   <cc:Work rdf:about="">
    <dc:format>image/svg+xml</dc:format>
    <dc:type rdf:resource="http://purl.org/dc/dcmitype/StillImage"/>
    <dc:title/>
   </cc:Work>
  </rdf:RDF>
 </metadata>
 <defs>
  <style id="current-color-scheme" type="text/css">.ColorScheme-Text {
        color:#eff0f1;
      }
      .ColorScheme-Highlight {
        color:#3daee9;
      }</style>
 </defs>
 <g transform="translate(1,1)" stroke-width=".4">
  <path class="ColorScheme-Text" d="m9 4.2949a7 7 0 0 0-4.7012 4.7051h1.0527a6 6 0 0 1 3.6484-3.6504zm4 0.00391v1.0527a6 6 0 0 1 3.6504 3.6484h1.0547a7 7 0 0 0-4.7051-4.7012zm-8.7051 8.7012a7 7 0 0 0 4.7051 4.7012v-1.0527a6 6 0 0 1-3.6504-3.6484zm12.354 0a6 6 0 0 1-3.6484 3.6504v1.0547a7 7 0 0 0 4.7012-4.7051z" color="#eff0f1" fill="#eae6d8" stroke="#a0968c"/>
  <path class="ColorScheme-Highlight" d="m9 2v4h4v-4zm1 1h2v2h-2zm-8 6v4h4v-4zm14 0v4h4v-4zm-13 1h2v2h-2zm14 0h2v2h-2zm-8 6v4h4v-4zm1 1h2v2h-2z" color="#3daee9" fill="#b40000" stroke="#640000"/>
 </g>
</svg>
