<?xml version="1.0" encoding="UTF-8"?>
<svg version="1.1" viewBox="0 0 24 24" xmlns="http://www.w3.org/2000/svg" xmlns:cc="http://creativecommons.org/ns#" xmlns:dc="http://purl.org/dc/elements/1.1/" xmlns:rdf="http://www.w3.org/1999/02/22-rdf-syntax-ns#">
 <metadata>
  <rdf:RDF>
   <cc:Work rdf:about="">
    <dc:format>image/svg+xml</dc:format>
    <dc:type rdf:resource="http://purl.org/dc/dcmitype/StillImage"/>
    <dc:title/>
   </cc:Work>
  </rdf:RDF>
 </metadata>
 <defs>
  <style id="current-color-scheme" type="text/css">.ColorScheme-Text {
        color:#eff0f1;
      }
      .ColorScheme-Highlight {
        color:#3daee9;
      }</style>
 </defs>
 <g transform="translate(1,1)" stroke-width=".4">
  <path class="ColorScheme-Text" d="m10.5 3v9h1v-9zm-3 1v4l2-2zm7 0-2 2 2 2zm3.9668 3.252-0.0059 0.00195v0.00195zm-0.0059 0.00391-6.8925 4.7441h0.43164v0.91992l7-4.8125zm-8.4609 5.8242-6.6992 4.6113 0.58203 0.80859 6.5449-4.5h-0.42773zm-6.6992 4.6113-0.00195-0.0039v0.0059zm7.1992-3.6914v5h1v-5z" color="#eff0f1" fill="#eae6d8" stroke="#a0968c"/>
  <path class="ColorScheme-Highlight" d="m9 11v4h4v-4zm1 1h2v2h-2z" color="#3daee9" fill="#b40000" stroke="#640000"/>
 </g>
</svg>
