<?xml version="1.0" encoding="UTF-8" standalone="no"?>
<!-- Created with Inkscape (http://www.inkscape.org/) -->

<svg
   xmlns:dc="http://purl.org/dc/elements/1.1/"
   xmlns:cc="http://creativecommons.org/ns#"
   xmlns:rdf="http://www.w3.org/1999/02/22-rdf-syntax-ns#"
   xmlns:svg="http://www.w3.org/2000/svg"
   xmlns="http://www.w3.org/2000/svg"
   xmlns:sodipodi="http://sodipodi.sourceforge.net/DTD/sodipodi-0.dtd"
   xmlns:inkscape="http://www.inkscape.org/namespaces/inkscape"
   version="1.1"
   id="svg2"
   width="128"
   height="128"
   viewBox="0 0 128 128"
   sodipodi:docname="start-here.svg"
   inkscape:version="0.92.5 (2060ec1f9f, 2020-04-08)">
  <metadata
     id="metadata8">
    <rdf:RDF>
      <cc:Work
         rdf:about="">
        <dc:format>image/svg+xml</dc:format>
        <dc:type
           rdf:resource="http://purl.org/dc/dcmitype/StillImage" />
        <dc:title></dc:title>
      </cc:Work>
    </rdf:RDF>
  </metadata>
  <defs
     id="defs6">
    <clipPath
       clipPathUnits="userSpaceOnUse"
       id="clipPath18">
      <path
         d="M 0,595.28 H 841.89 V 0 H 0 Z"
         id="path16"
         inkscape:connector-curvature="0" />
    </clipPath>
  </defs>
  <sodipodi:namedview
     pagecolor="#ffffff"
     bordercolor="#666666"
     borderopacity="1"
     objecttolerance="10"
     gridtolerance="10"
     guidetolerance="10"
     inkscape:pageopacity="0"
     inkscape:pageshadow="2"
     inkscape:window-width="1316"
     inkscape:window-height="1052"
     id="namedview4"
     showgrid="false"
     inkscape:zoom="5.2149125"
     inkscape:cx="58.081229"
     inkscape:cy="76.990897"
     inkscape:window-x="0"
     inkscape:window-y="28"
     inkscape:window-maximized="0"
     inkscape:current-layer="svg2"
     inkscape:snap-global="true" />
  <g
     transform="matrix(1.2349327,0,0,-1.2349327,-456.4081,431.13937)"
     id="g12"
     style="fill:#ffffff;stroke:#1a1a1a">
    <g
       id="g14"
       clip-path="url(#clipPath18)"
       style="fill:#ffffff;stroke:#1a1a1a">
      <g
         id="g20"
         transform="translate(410.061,293.0205)"
         style="fill:#ffffff;stroke:#1a1a1a">
        <path
           d="m 0,0 -6.951,4.172 v 7.299 H 0 Z m -0.174,-17.901 -6.865,-5.475 v 8.43 l 6.865,4.084 z M 60.491,55.386 C 50.127,42.198 31.792,33.426 10.883,33.426 c -20.906,0 -39.243,8.772 -49.606,21.96 3.889,-15.025 14.426,-27.369 28.283,-33.721 l -5.808,-3.502 V -0.174 l 9.123,-5.214 -9.123,-4.866 v -35.889 l 25.807,21.55 v 41.644 c 0.441,-0.011 0.88,-0.029 1.324,-0.029 0.444,0 0.883,0.018 1.325,0.029 v -41.644 l 25.806,-21.55 0.002,43.537 H 24.461 V -12.86 h 3.127 v -8.952 l -5.822,4.345 v 28.938 h 5.822 V 9.386 h 10.428 v 8.777 l -5.808,3.502 c 13.857,6.353 24.394,18.696 28.283,33.721"
           style="fill:#ffffff;fill-opacity:1;fill-rule:nonzero;stroke:#1a1a1a"
           id="path22"
           inkscape:connector-curvature="0" />
      </g>
    </g>
  </g>
</svg>
